<?xml version="1.0" encoding="utf-8" standalone="no"?>
<!DOCTYPE svg PUBLIC "-//W3C//DTD SVG 1.1//EN"
  "http://www.w3.org/Graphics/SVG/1.1/DTD/svg11.dtd">
<svg xmlns:xlink="http://www.w3.org/1999/xlink" width="864pt" height="576pt" viewBox="0 0 864 576" xmlns="http://www.w3.org/2000/svg" version="1.1">
 <metadata>
  <rdf:RDF xmlns:dc="http://purl.org/dc/elements/1.1/" xmlns:cc="http://creativecommons.org/ns#" xmlns:rdf="http://www.w3.org/1999/02/22-rdf-syntax-ns#">
   <cc:Work>
    <dc:type rdf:resource="http://purl.org/dc/dcmitype/StillImage"/>
    <dc:date>2025-05-08T13:18:24.848010</dc:date>
    <dc:format>image/svg+xml</dc:format>
    <dc:creator>
     <cc:Agent>
      <dc:title>Matplotlib v3.10.1+dfsg1, https://matplotlib.org/</dc:title>
     </cc:Agent>
    </dc:creator>
   </cc:Work>
  </rdf:RDF>
 </metadata>
 <defs>
  <style type="text/css">*{stroke-linejoin: round; stroke-linecap: butt}</style>
 </defs>
 <g id="figure_1">
  <g id="patch_1">
   <path d="M 0 576 
L 864 576 
L 864 0 
L 0 0 
z
" style="fill: #ffffff"/>
  </g>
  <g id="axes_1">
   <g id="patch_2">
    <path d="M 40.387232 257.11239 
L 430.592501 257.11239 
L 430.592501 3.654462 
L 40.387232 3.654462 
z
" style="fill: #ffffff"/>
   </g>
   <g id="matplotlib.axis_1">
    <g id="xtick_1">
     <g id="line2d_1">
      <defs>
       <path id="mae90e1fac1" d="M 0 0 
L 0 3.5 
" style="stroke: #000000; stroke-width: 0.8"/>
      </defs>
      <g>
       <use xlink:href="#mae90e1fac1" x="48.829545" y="257.11239" style="stroke: #000000; stroke-width: 0.8"/>
      </g>
     </g>
     <g id="text_1">
      <!-- 15:00 -->
      <g transform="translate(38.329434 269.649372) scale(0.07287 -0.07287)">
       <defs>
        <path id="DejaVuSerif-31" d="M 909 0 
L 909 331 
L 1722 331 
L 1722 4213 
L 781 3603 
L 781 4013 
L 1919 4750 
L 2350 4750 
L 2350 331 
L 3163 331 
L 3163 0 
L 909 0 
z
" transform="scale(0.015625)"/>
        <path id="DejaVuSerif-35" d="M 3219 4666 
L 3219 4153 
L 1081 4153 
L 1081 2816 
Q 1244 2928 1461 2984 
Q 1678 3041 1947 3041 
Q 2703 3041 3140 2622 
Q 3578 2203 3578 1478 
Q 3578 738 3136 323 
Q 2694 -91 1894 -91 
Q 1572 -91 1234 -12 
Q 897 66 544 225 
L 544 1131 
L 897 1131 
Q 925 688 1179 453 
Q 1434 219 1894 219 
Q 2388 219 2653 544 
Q 2919 869 2919 1478 
Q 2919 2084 2655 2407 
Q 2391 2731 1894 2731 
Q 1613 2731 1398 2631 
Q 1184 2531 1019 2322 
L 750 2322 
L 750 4666 
L 3219 4666 
z
" transform="scale(0.015625)"/>
        <path id="DejaVuSerif-3a" d="M 666 325 
Q 666 500 786 622 
Q 906 744 1081 744 
Q 1256 744 1376 622 
Q 1497 500 1497 325 
Q 1497 150 1378 29 
Q 1259 -91 1081 -91 
Q 903 -91 784 29 
Q 666 150 666 325 
z
M 666 2363 
Q 666 2538 786 2658 
Q 906 2778 1081 2778 
Q 1259 2778 1378 2659 
Q 1497 2541 1497 2363 
Q 1497 2184 1378 2065 
Q 1259 1947 1081 1947 
Q 906 1947 786 2067 
Q 666 2188 666 2363 
z
" transform="scale(0.015625)"/>
        <path id="DejaVuSerif-30" d="M 2034 219 
Q 2513 219 2750 744 
Q 2988 1269 2988 2328 
Q 2988 3391 2750 3916 
Q 2513 4441 2034 4441 
Q 1556 4441 1318 3916 
Q 1081 3391 1081 2328 
Q 1081 1269 1318 744 
Q 1556 219 2034 219 
z
M 2034 -91 
Q 1275 -91 848 546 
Q 422 1184 422 2328 
Q 422 3475 848 4112 
Q 1275 4750 2034 4750 
Q 2797 4750 3222 4112 
Q 3647 3475 3647 2328 
Q 3647 1184 3222 546 
Q 2797 -91 2034 -91 
z
" transform="scale(0.015625)"/>
       </defs>
       <use xlink:href="#DejaVuSerif-31"/>
       <use xlink:href="#DejaVuSerif-35" transform="translate(63.623047 0)"/>
       <use xlink:href="#DejaVuSerif-3a" transform="translate(127.246094 0)"/>
       <use xlink:href="#DejaVuSerif-30" transform="translate(160.9375 0)"/>
       <use xlink:href="#DejaVuSerif-30" transform="translate(224.560547 0)"/>
      </g>
     </g>
    </g>
    <g id="xtick_2">
     <g id="line2d_2">
      <g>
       <use xlink:href="#mae90e1fac1" x="95.300995" y="257.11239" style="stroke: #000000; stroke-width: 0.8"/>
      </g>
     </g>
     <g id="text_2">
      <!-- 18:00 -->
      <g transform="translate(84.800883 269.649372) scale(0.07287 -0.07287)">
       <defs>
        <path id="DejaVuSerif-38" d="M 2981 1275 
Q 2981 1775 2732 2051 
Q 2484 2328 2034 2328 
Q 1584 2328 1336 2051 
Q 1088 1775 1088 1275 
Q 1088 772 1336 495 
Q 1584 219 2034 219 
Q 2484 219 2732 495 
Q 2981 772 2981 1275 
z
M 2853 3541 
Q 2853 3966 2637 4203 
Q 2422 4441 2034 4441 
Q 1650 4441 1433 4203 
Q 1216 3966 1216 3541 
Q 1216 3113 1433 2875 
Q 1650 2638 2034 2638 
Q 2422 2638 2637 2875 
Q 2853 3113 2853 3541 
z
M 2516 2484 
Q 3047 2413 3344 2092 
Q 3641 1772 3641 1275 
Q 3641 619 3225 264 
Q 2809 -91 2034 -91 
Q 1263 -91 845 264 
Q 428 619 428 1275 
Q 428 1772 725 2092 
Q 1022 2413 1556 2484 
Q 1084 2569 832 2842 
Q 581 3116 581 3541 
Q 581 4103 968 4426 
Q 1356 4750 2034 4750 
Q 2713 4750 3100 4426 
Q 3488 4103 3488 3541 
Q 3488 3116 3236 2842 
Q 2984 2569 2516 2484 
z
" transform="scale(0.015625)"/>
       </defs>
       <use xlink:href="#DejaVuSerif-31"/>
       <use xlink:href="#DejaVuSerif-38" transform="translate(63.623047 0)"/>
       <use xlink:href="#DejaVuSerif-3a" transform="translate(127.246094 0)"/>
       <use xlink:href="#DejaVuSerif-30" transform="translate(160.9375 0)"/>
       <use xlink:href="#DejaVuSerif-30" transform="translate(224.560547 0)"/>
      </g>
     </g>
    </g>
    <g id="xtick_3">
     <g id="line2d_3">
      <g>
       <use xlink:href="#mae90e1fac1" x="141.772444" y="257.11239" style="stroke: #000000; stroke-width: 0.8"/>
      </g>
     </g>
     <g id="text_3">
      <!-- 21:00 -->
      <g transform="translate(131.272332 269.649372) scale(0.07287 -0.07287)">
       <defs>
        <path id="DejaVuSerif-32" d="M 819 3553 
L 469 3553 
L 469 4384 
Q 803 4563 1142 4656 
Q 1481 4750 1806 4750 
Q 2534 4750 2956 4397 
Q 3378 4044 3378 3438 
Q 3378 2753 2422 1800 
Q 2347 1728 2309 1691 
L 1131 513 
L 3078 513 
L 3078 1088 
L 3444 1088 
L 3444 0 
L 434 0 
L 434 341 
L 1850 1753 
Q 2319 2222 2519 2614 
Q 2719 3006 2719 3438 
Q 2719 3909 2473 4175 
Q 2228 4441 1797 4441 
Q 1350 4441 1106 4219 
Q 863 3997 819 3553 
z
" transform="scale(0.015625)"/>
       </defs>
       <use xlink:href="#DejaVuSerif-32"/>
       <use xlink:href="#DejaVuSerif-31" transform="translate(63.623047 0)"/>
       <use xlink:href="#DejaVuSerif-3a" transform="translate(127.246094 0)"/>
       <use xlink:href="#DejaVuSerif-30" transform="translate(160.9375 0)"/>
       <use xlink:href="#DejaVuSerif-30" transform="translate(224.560547 0)"/>
      </g>
     </g>
    </g>
    <g id="xtick_4">
     <g id="line2d_4">
      <g>
       <use xlink:href="#mae90e1fac1" x="188.243893" y="257.11239" style="stroke: #000000; stroke-width: 0.8"/>
      </g>
     </g>
     <g id="text_4">
      <!-- May-07 -->
      <g transform="translate(174.414533 269.54576) scale(0.07287 -0.07287)">
       <defs>
        <path id="DejaVuSerif-4d" d="M 353 0 
L 353 331 
L 947 331 
L 947 4331 
L 319 4331 
L 319 4666 
L 1678 4666 
L 3316 1344 
L 4953 4666 
L 6228 4666 
L 6228 4331 
L 5606 4331 
L 5606 331 
L 6203 331 
L 6203 0 
L 4378 0 
L 4378 331 
L 4972 331 
L 4972 3938 
L 3372 684 
L 2931 684 
L 1331 3938 
L 1331 331 
L 1925 331 
L 1925 0 
L 353 0 
z
" transform="scale(0.015625)"/>
        <path id="DejaVuSerif-61" d="M 2547 1044 
L 2547 1747 
L 1806 1747 
Q 1378 1747 1168 1562 
Q 959 1378 959 997 
Q 959 650 1171 447 
Q 1384 244 1747 244 
Q 2106 244 2326 466 
Q 2547 688 2547 1044 
z
M 3122 2075 
L 3122 331 
L 3634 331 
L 3634 0 
L 2547 0 
L 2547 359 
Q 2356 128 2106 18 
Q 1856 -91 1522 -91 
Q 969 -91 644 203 
Q 319 497 319 997 
Q 319 1513 691 1797 
Q 1063 2081 1741 2081 
L 2547 2081 
L 2547 2309 
Q 2547 2688 2317 2895 
Q 2088 3103 1672 3103 
Q 1328 3103 1125 2947 
Q 922 2791 872 2484 
L 575 2484 
L 575 3156 
Q 875 3284 1158 3348 
Q 1441 3413 1709 3413 
Q 2400 3413 2761 3070 
Q 3122 2728 3122 2075 
z
" transform="scale(0.015625)"/>
        <path id="DejaVuSerif-79" d="M 1381 -609 
L 1600 -56 
L 359 2988 
L -19 2988 
L -19 3322 
L 1509 3322 
L 1509 2988 
L 978 2988 
L 1913 703 
L 2847 2988 
L 2350 2988 
L 2350 3322 
L 3597 3322 
L 3597 2988 
L 3225 2988 
L 1703 -750 
Q 1547 -1138 1356 -1280 
Q 1166 -1422 819 -1422 
Q 672 -1422 517 -1397 
Q 363 -1372 206 -1325 
L 206 -691 
L 500 -691 
Q 519 -903 608 -995 
Q 697 -1088 884 -1088 
Q 1056 -1088 1161 -992 
Q 1266 -897 1381 -609 
z
" transform="scale(0.015625)"/>
        <path id="DejaVuSerif-2d" d="M 281 1959 
L 1881 1959 
L 1881 1472 
L 281 1472 
L 281 1959 
z
" transform="scale(0.015625)"/>
        <path id="DejaVuSerif-37" d="M 3609 4347 
L 1784 0 
L 1319 0 
L 3059 4153 
L 903 4153 
L 903 3578 
L 538 3578 
L 538 4666 
L 3609 4666 
L 3609 4347 
z
" transform="scale(0.015625)"/>
       </defs>
       <use xlink:href="#DejaVuSerif-4d"/>
       <use xlink:href="#DejaVuSerif-61" transform="translate(102.392578 0)"/>
       <use xlink:href="#DejaVuSerif-79" transform="translate(162.011719 0)"/>
       <use xlink:href="#DejaVuSerif-2d" transform="translate(218.505859 0)"/>
       <use xlink:href="#DejaVuSerif-30" transform="translate(252.294922 0)"/>
       <use xlink:href="#DejaVuSerif-37" transform="translate(315.917969 0)"/>
      </g>
     </g>
    </g>
    <g id="xtick_5">
     <g id="line2d_5">
      <g>
       <use xlink:href="#mae90e1fac1" x="234.715342" y="257.11239" style="stroke: #000000; stroke-width: 0.8"/>
      </g>
     </g>
     <g id="text_5">
      <!-- 03:00 -->
      <g transform="translate(224.215231 269.649372) scale(0.07287 -0.07287)">
       <defs>
        <path id="DejaVuSerif-33" d="M 622 4469 
Q 988 4606 1323 4678 
Q 1659 4750 1953 4750 
Q 2638 4750 3022 4454 
Q 3406 4159 3406 3634 
Q 3406 3213 3140 2930 
Q 2875 2647 2388 2547 
Q 2963 2466 3280 2130 
Q 3597 1794 3597 1259 
Q 3597 606 3158 257 
Q 2719 -91 1894 -91 
Q 1528 -91 1179 -12 
Q 831 66 488 225 
L 488 1131 
L 838 1131 
Q 869 681 1141 450 
Q 1413 219 1906 219 
Q 2384 219 2661 495 
Q 2938 772 2938 1253 
Q 2938 1803 2653 2086 
Q 2369 2369 1819 2369 
L 1522 2369 
L 1522 2688 
L 1678 2688 
Q 2225 2688 2498 2914 
Q 2772 3141 2772 3597 
Q 2772 4006 2547 4223 
Q 2322 4441 1900 4441 
Q 1478 4441 1245 4241 
Q 1013 4041 972 3647 
L 622 3647 
L 622 4469 
z
" transform="scale(0.015625)"/>
       </defs>
       <use xlink:href="#DejaVuSerif-30"/>
       <use xlink:href="#DejaVuSerif-33" transform="translate(63.623047 0)"/>
       <use xlink:href="#DejaVuSerif-3a" transform="translate(127.246094 0)"/>
       <use xlink:href="#DejaVuSerif-30" transform="translate(160.9375 0)"/>
       <use xlink:href="#DejaVuSerif-30" transform="translate(224.560547 0)"/>
      </g>
     </g>
    </g>
    <g id="xtick_6">
     <g id="line2d_6">
      <g>
       <use xlink:href="#mae90e1fac1" x="281.186792" y="257.11239" style="stroke: #000000; stroke-width: 0.8"/>
      </g>
     </g>
     <g id="text_6">
      <!-- 06:00 -->
      <g transform="translate(270.68668 269.649372) scale(0.07287 -0.07287)">
       <defs>
        <path id="DejaVuSerif-36" d="M 2094 219 
Q 2534 219 2771 542 
Q 3009 866 3009 1472 
Q 3009 2078 2771 2401 
Q 2534 2725 2094 2725 
Q 1647 2725 1412 2412 
Q 1178 2100 1178 1509 
Q 1178 888 1415 553 
Q 1653 219 2094 219 
z
M 1075 2569 
Q 1288 2803 1556 2918 
Q 1825 3034 2163 3034 
Q 2859 3034 3264 2615 
Q 3669 2197 3669 1472 
Q 3669 763 3233 336 
Q 2797 -91 2069 -91 
Q 1278 -91 853 498 
Q 428 1088 428 2181 
Q 428 3406 931 4078 
Q 1434 4750 2350 4750 
Q 2597 4750 2869 4703 
Q 3141 4656 3425 4563 
L 3425 3794 
L 3072 3794 
Q 3034 4109 2831 4275 
Q 2628 4441 2284 4441 
Q 1678 4441 1381 3981 
Q 1084 3522 1075 2569 
z
" transform="scale(0.015625)"/>
       </defs>
       <use xlink:href="#DejaVuSerif-30"/>
       <use xlink:href="#DejaVuSerif-36" transform="translate(63.623047 0)"/>
       <use xlink:href="#DejaVuSerif-3a" transform="translate(127.246094 0)"/>
       <use xlink:href="#DejaVuSerif-30" transform="translate(160.9375 0)"/>
       <use xlink:href="#DejaVuSerif-30" transform="translate(224.560547 0)"/>
      </g>
     </g>
    </g>
    <g id="xtick_7">
     <g id="line2d_7">
      <g>
       <use xlink:href="#mae90e1fac1" x="327.658241" y="257.11239" style="stroke: #000000; stroke-width: 0.8"/>
      </g>
     </g>
     <g id="text_7">
      <!-- 09:00 -->
      <g transform="translate(317.158129 269.649372) scale(0.07287 -0.07287)">
       <defs>
        <path id="DejaVuSerif-39" d="M 2994 2091 
Q 2784 1856 2512 1740 
Q 2241 1625 1900 1625 
Q 1206 1625 804 2044 
Q 403 2463 403 3188 
Q 403 3897 839 4323 
Q 1275 4750 2003 4750 
Q 2794 4750 3217 4161 
Q 3641 3572 3641 2478 
Q 3641 1253 3137 581 
Q 2634 -91 1722 -91 
Q 1475 -91 1203 -44 
Q 931 3 647 97 
L 647 872 
L 997 872 
Q 1038 556 1241 387 
Q 1444 219 1784 219 
Q 2391 219 2687 676 
Q 2984 1134 2994 2091 
z
M 1978 4441 
Q 1534 4441 1298 4117 
Q 1063 3794 1063 3188 
Q 1063 2581 1298 2256 
Q 1534 1931 1978 1931 
Q 2422 1931 2658 2245 
Q 2894 2559 2894 3150 
Q 2894 3772 2656 4106 
Q 2419 4441 1978 4441 
z
" transform="scale(0.015625)"/>
       </defs>
       <use xlink:href="#DejaVuSerif-30"/>
       <use xlink:href="#DejaVuSerif-39" transform="translate(63.623047 0)"/>
       <use xlink:href="#DejaVuSerif-3a" transform="translate(127.246094 0)"/>
       <use xlink:href="#DejaVuSerif-30" transform="translate(160.9375 0)"/>
       <use xlink:href="#DejaVuSerif-30" transform="translate(224.560547 0)"/>
      </g>
     </g>
    </g>
    <g id="xtick_8">
     <g id="line2d_8">
      <g>
       <use xlink:href="#mae90e1fac1" x="374.12969" y="257.11239" style="stroke: #000000; stroke-width: 0.8"/>
      </g>
     </g>
     <g id="text_8">
      <!-- 12:00 -->
      <g transform="translate(363.629579 269.649372) scale(0.07287 -0.07287)">
       <use xlink:href="#DejaVuSerif-31"/>
       <use xlink:href="#DejaVuSerif-32" transform="translate(63.623047 0)"/>
       <use xlink:href="#DejaVuSerif-3a" transform="translate(127.246094 0)"/>
       <use xlink:href="#DejaVuSerif-30" transform="translate(160.9375 0)"/>
       <use xlink:href="#DejaVuSerif-30" transform="translate(224.560547 0)"/>
      </g>
     </g>
    </g>
    <g id="xtick_9">
     <g id="line2d_9">
      <g>
       <use xlink:href="#mae90e1fac1" x="420.601139" y="257.11239" style="stroke: #000000; stroke-width: 0.8"/>
      </g>
     </g>
     <g id="text_9">
      <!-- 15:00 -->
      <g transform="translate(410.101028 269.649372) scale(0.07287 -0.07287)">
       <use xlink:href="#DejaVuSerif-31"/>
       <use xlink:href="#DejaVuSerif-35" transform="translate(63.623047 0)"/>
       <use xlink:href="#DejaVuSerif-3a" transform="translate(127.246094 0)"/>
       <use xlink:href="#DejaVuSerif-30" transform="translate(160.9375 0)"/>
       <use xlink:href="#DejaVuSerif-30" transform="translate(224.560547 0)"/>
      </g>
     </g>
    </g>
    <g id="text_10">
     <!-- Time -->
     <g transform="translate(222.222953 283.143199) scale(0.105 -0.105)">
      <defs>
       <path id="DejaVuSerif-54" d="M 1222 0 
L 1222 331 
L 1819 331 
L 1819 4294 
L 447 4294 
L 447 3566 
L 63 3566 
L 63 4666 
L 4206 4666 
L 4206 3566 
L 3822 3566 
L 3822 4294 
L 2450 4294 
L 2450 331 
L 3047 331 
L 3047 0 
L 1222 0 
z
" transform="scale(0.015625)"/>
       <path id="DejaVuSerif-69" d="M 622 4353 
Q 622 4497 726 4603 
Q 831 4709 978 4709 
Q 1122 4709 1226 4603 
Q 1331 4497 1331 4353 
Q 1331 4206 1228 4103 
Q 1125 4000 978 4000 
Q 831 4000 726 4103 
Q 622 4206 622 4353 
z
M 1356 331 
L 1900 331 
L 1900 0 
L 231 0 
L 231 331 
L 781 331 
L 781 2988 
L 231 2988 
L 231 3322 
L 1356 3322 
L 1356 331 
z
" transform="scale(0.015625)"/>
       <path id="DejaVuSerif-6d" d="M 3316 2675 
Q 3481 3041 3739 3227 
Q 3997 3413 4341 3413 
Q 4863 3413 5119 3089 
Q 5375 2766 5375 2113 
L 5375 331 
L 5894 331 
L 5894 0 
L 4300 0 
L 4300 331 
L 4800 331 
L 4800 2047 
Q 4800 2556 4650 2772 
Q 4500 2988 4153 2988 
Q 3769 2988 3567 2697 
Q 3366 2406 3366 1850 
L 3366 331 
L 3866 331 
L 3866 0 
L 2291 0 
L 2291 331 
L 2791 331 
L 2791 2069 
Q 2791 2566 2641 2777 
Q 2491 2988 2144 2988 
Q 1759 2988 1557 2697 
Q 1356 2406 1356 1850 
L 1356 331 
L 1856 331 
L 1856 0 
L 263 0 
L 263 331 
L 781 331 
L 781 2994 
L 231 2994 
L 231 3322 
L 1356 3322 
L 1356 2731 
Q 1516 3063 1762 3238 
Q 2009 3413 2322 3413 
Q 2709 3413 2968 3220 
Q 3228 3028 3316 2675 
z
" transform="scale(0.015625)"/>
       <path id="DejaVuSerif-65" d="M 3469 1600 
L 991 1600 
L 991 1575 
Q 991 903 1244 561 
Q 1497 219 1991 219 
Q 2369 219 2611 417 
Q 2853 616 2950 1006 
L 3413 1006 
Q 3275 459 2904 184 
Q 2534 -91 1931 -91 
Q 1203 -91 761 389 
Q 319 869 319 1663 
Q 319 2450 753 2931 
Q 1188 3413 1894 3413 
Q 2647 3413 3050 2948 
Q 3453 2484 3469 1600 
z
M 2791 1931 
Q 2772 2513 2545 2808 
Q 2319 3103 1894 3103 
Q 1497 3103 1269 2806 
Q 1041 2509 991 1931 
L 2791 1931 
z
" transform="scale(0.015625)"/>
      </defs>
      <use xlink:href="#DejaVuSerif-54"/>
      <use xlink:href="#DejaVuSerif-69" transform="translate(66.699219 0)"/>
      <use xlink:href="#DejaVuSerif-6d" transform="translate(98.681641 0)"/>
      <use xlink:href="#DejaVuSerif-65" transform="translate(193.505859 0)"/>
     </g>
    </g>
    <g id="text_11">
     <!-- 2025-May-07 -->
     <g transform="translate(381.925588 279.598209) scale(0.07287 -0.07287)">
      <use xlink:href="#DejaVuSerif-32"/>
      <use xlink:href="#DejaVuSerif-30" transform="translate(63.623047 0)"/>
      <use xlink:href="#DejaVuSerif-32" transform="translate(127.246094 0)"/>
      <use xlink:href="#DejaVuSerif-35" transform="translate(190.869141 0)"/>
      <use xlink:href="#DejaVuSerif-2d" transform="translate(254.492188 0)"/>
      <use xlink:href="#DejaVuSerif-4d" transform="translate(288.28125 0)"/>
      <use xlink:href="#DejaVuSerif-61" transform="translate(390.673828 0)"/>
      <use xlink:href="#DejaVuSerif-79" transform="translate(450.292969 0)"/>
      <use xlink:href="#DejaVuSerif-2d" transform="translate(506.787109 0)"/>
      <use xlink:href="#DejaVuSerif-30" transform="translate(540.576172 0)"/>
      <use xlink:href="#DejaVuSerif-37" transform="translate(604.199219 0)"/>
     </g>
    </g>
   </g>
   <g id="matplotlib.axis_2">
    <g id="ytick_1">
     <g id="line2d_10">
      <defs>
       <path id="m1cc99cddf5" d="M 0 0 
L -3.5 0 
" style="stroke: #000000; stroke-width: 0.8"/>
      </defs>
      <g>
       <use xlink:href="#m1cc99cddf5" x="40.387232" y="240.889202" style="stroke: #000000; stroke-width: 0.8"/>
      </g>
     </g>
     <g id="text_12">
      <!-- 12.5 -->
      <g transform="translate(17.162271 243.657693) scale(0.07287 -0.07287)">
       <defs>
        <path id="DejaVuSerif-2e" d="M 603 325 
Q 603 500 722 622 
Q 841 744 1019 744 
Q 1191 744 1312 622 
Q 1434 500 1434 325 
Q 1434 153 1312 31 
Q 1191 -91 1019 -91 
Q 841 -91 722 29 
Q 603 150 603 325 
z
" transform="scale(0.015625)"/>
       </defs>
       <use xlink:href="#DejaVuSerif-31"/>
       <use xlink:href="#DejaVuSerif-32" transform="translate(63.623047 0)"/>
       <use xlink:href="#DejaVuSerif-2e" transform="translate(127.246094 0)"/>
       <use xlink:href="#DejaVuSerif-35" transform="translate(159.033203 0)"/>
      </g>
     </g>
    </g>
    <g id="ytick_2">
     <g id="line2d_11">
      <g>
       <use xlink:href="#m1cc99cddf5" x="40.387232" y="193.865468" style="stroke: #000000; stroke-width: 0.8"/>
      </g>
     </g>
     <g id="text_13">
      <!-- 12.6 -->
      <g transform="translate(17.162271 196.633958) scale(0.07287 -0.07287)">
       <use xlink:href="#DejaVuSerif-31"/>
       <use xlink:href="#DejaVuSerif-32" transform="translate(63.623047 0)"/>
       <use xlink:href="#DejaVuSerif-2e" transform="translate(127.246094 0)"/>
       <use xlink:href="#DejaVuSerif-36" transform="translate(159.033203 0)"/>
      </g>
     </g>
    </g>
    <g id="ytick_3">
     <g id="line2d_12">
      <g>
       <use xlink:href="#m1cc99cddf5" x="40.387232" y="146.841733" style="stroke: #000000; stroke-width: 0.8"/>
      </g>
     </g>
     <g id="text_14">
      <!-- 12.7 -->
      <g transform="translate(17.162271 149.610224) scale(0.07287 -0.07287)">
       <use xlink:href="#DejaVuSerif-31"/>
       <use xlink:href="#DejaVuSerif-32" transform="translate(63.623047 0)"/>
       <use xlink:href="#DejaVuSerif-2e" transform="translate(127.246094 0)"/>
       <use xlink:href="#DejaVuSerif-37" transform="translate(159.033203 0)"/>
      </g>
     </g>
    </g>
    <g id="ytick_4">
     <g id="line2d_13">
      <g>
       <use xlink:href="#m1cc99cddf5" x="40.387232" y="99.817999" style="stroke: #000000; stroke-width: 0.8"/>
      </g>
     </g>
     <g id="text_15">
      <!-- 12.8 -->
      <g transform="translate(17.162271 102.58649) scale(0.07287 -0.07287)">
       <use xlink:href="#DejaVuSerif-31"/>
       <use xlink:href="#DejaVuSerif-32" transform="translate(63.623047 0)"/>
       <use xlink:href="#DejaVuSerif-2e" transform="translate(127.246094 0)"/>
       <use xlink:href="#DejaVuSerif-38" transform="translate(159.033203 0)"/>
      </g>
     </g>
    </g>
    <g id="ytick_5">
     <g id="line2d_14">
      <g>
       <use xlink:href="#m1cc99cddf5" x="40.387232" y="52.794265" style="stroke: #000000; stroke-width: 0.8"/>
      </g>
     </g>
     <g id="text_16">
      <!-- 12.9 -->
      <g transform="translate(17.162271 55.562755) scale(0.07287 -0.07287)">
       <use xlink:href="#DejaVuSerif-31"/>
       <use xlink:href="#DejaVuSerif-32" transform="translate(63.623047 0)"/>
       <use xlink:href="#DejaVuSerif-2e" transform="translate(127.246094 0)"/>
       <use xlink:href="#DejaVuSerif-39" transform="translate(159.033203 0)"/>
      </g>
     </g>
    </g>
    <g id="ytick_6">
     <g id="line2d_15">
      <g>
       <use xlink:href="#m1cc99cddf5" x="40.387232" y="5.770531" style="stroke: #000000; stroke-width: 0.8"/>
      </g>
     </g>
     <g id="text_17">
      <!-- 13.0 -->
      <g transform="translate(17.162271 8.539021) scale(0.07287 -0.07287)">
       <use xlink:href="#DejaVuSerif-31"/>
       <use xlink:href="#DejaVuSerif-33" transform="translate(63.623047 0)"/>
       <use xlink:href="#DejaVuSerif-2e" transform="translate(127.246094 0)"/>
       <use xlink:href="#DejaVuSerif-30" transform="translate(159.033203 0)"/>
      </g>
     </g>
    </g>
    <g id="text_18">
     <!-- BAT. [V] -->
     <g transform="translate(10.978599 151.696786) rotate(-90) scale(0.105 -0.105)">
      <defs>
       <path id="DejaVuSerif-42" d="M 1581 331 
L 2516 331 
Q 3078 331 3337 575 
Q 3597 819 3597 1350 
Q 3597 1878 3339 2120 
Q 3081 2363 2516 2363 
L 1581 2363 
L 1581 331 
z
M 1581 2694 
L 2375 2694 
Q 2888 2694 3123 2891 
Q 3359 3088 3359 3513 
Q 3359 3941 3123 4136 
Q 2888 4331 2375 4331 
L 1581 4331 
L 1581 2694 
z
M 353 0 
L 353 331 
L 947 331 
L 947 4331 
L 353 4331 
L 353 4666 
L 2656 4666 
Q 3363 4666 3720 4377 
Q 4078 4088 4078 3513 
Q 4078 3097 3829 2850 
Q 3581 2603 3103 2547 
Q 3697 2472 4005 2167 
Q 4313 1863 4313 1350 
Q 4313 656 3875 328 
Q 3438 0 2509 0 
L 353 0 
z
" transform="scale(0.015625)"/>
       <path id="DejaVuSerif-41" d="M 1281 1691 
L 2994 1691 
L 2138 3909 
L 1281 1691 
z
M -38 0 
L -38 331 
L 372 331 
L 2034 4666 
L 2559 4666 
L 4225 331 
L 4684 331 
L 4684 0 
L 2988 0 
L 2988 331 
L 3506 331 
L 3116 1356 
L 1153 1356 
L 763 331 
L 1275 331 
L 1275 0 
L -38 0 
z
" transform="scale(0.015625)"/>
       <path id="DejaVuSerif-20" transform="scale(0.015625)"/>
       <path id="DejaVuSerif-5b" d="M 550 4863 
L 2003 4863 
L 2003 4531 
L 1147 4531 
L 1147 -513 
L 2003 -513 
L 2003 -844 
L 550 -844 
L 550 4863 
z
" transform="scale(0.015625)"/>
       <path id="DejaVuSerif-56" d="M 1119 4331 
L 2497 750 
L 3872 4331 
L 3347 4331 
L 3347 4666 
L 4716 4666 
L 4716 4331 
L 4263 4331 
L 2597 0 
L 2059 0 
L 403 4331 
L -63 4331 
L -63 4666 
L 1638 4666 
L 1638 4331 
L 1119 4331 
z
" transform="scale(0.015625)"/>
       <path id="DejaVuSerif-5d" d="M 1947 4863 
L 1947 -844 
L 494 -844 
L 494 -513 
L 1350 -513 
L 1350 4531 
L 494 4531 
L 494 4863 
L 1947 4863 
z
" transform="scale(0.015625)"/>
      </defs>
      <use xlink:href="#DejaVuSerif-42"/>
      <use xlink:href="#DejaVuSerif-41" transform="translate(73.486328 0)"/>
      <use xlink:href="#DejaVuSerif-54" transform="translate(140.203125 0)"/>
      <use xlink:href="#DejaVuSerif-2e" transform="translate(192.152344 0)"/>
      <use xlink:href="#DejaVuSerif-20" transform="translate(223.939453 0)"/>
      <use xlink:href="#DejaVuSerif-5b" transform="translate(255.726562 0)"/>
      <use xlink:href="#DejaVuSerif-56" transform="translate(294.740234 0)"/>
      <use xlink:href="#DejaVuSerif-5d" transform="translate(366.957031 0)"/>
     </g>
    </g>
   </g>
   <g id="line2d_16">
    <path d="M 58.123835 203.270215 
L 58.640185 203.270215 
L 59.156534 212.674961 
L 59.672884 203.270215 
L 62.77098 203.270215 
L 63.28733 212.674961 
L 63.803679 203.270215 
L 64.320029 203.270215 
L 64.836378 212.674961 
L 65.352727 212.674961 
L 65.869077 203.270215 
L 67.418125 203.270215 
L 67.934475 212.674961 
L 68.450824 203.270215 
L 68.967173 212.674961 
L 69.483523 212.674961 
L 69.999872 203.270215 
L 71.032571 203.270215 
L 71.548921 212.674961 
L 72.58162 212.674961 
L 73.097969 203.270215 
L 73.614318 203.270215 
L 74.130668 212.674961 
L 74.647017 212.674961 
L 75.163367 203.270215 
L 75.679716 212.674961 
L 76.196066 203.270215 
L 76.712415 212.674961 
L 77.228764 203.270215 
L 79.810512 203.270215 
L 80.326861 212.674961 
L 80.84321 203.270215 
L 81.35956 203.270215 
L 81.875909 217.377335 
L 82.392259 212.674961 
L 83.424958 212.674961 
L 83.941307 203.270215 
L 84.457657 203.270215 
L 84.974006 217.377335 
L 85.490355 212.674961 
L 86.523054 212.674961 
L 87.039404 217.377335 
L 87.555753 212.674961 
L 88.588452 212.674961 
L 89.104801 203.270215 
L 89.621151 212.674961 
L 91.170199 212.674961 
L 91.686549 203.270215 
L 92.202898 212.674961 
L 94.784645 212.674961 
L 95.300995 203.270215 
L 95.817344 212.674961 
L 96.850043 212.674961 
L 97.366392 203.270215 
L 97.882742 212.674961 
L 98.915441 212.674961 
L 99.43179 217.377335 
L 99.94814 212.674961 
L 100.464489 217.377335 
L 100.980838 212.674961 
L 105.111634 212.674961 
L 105.627983 217.377335 
L 106.660682 217.377335 
L 107.177032 212.674961 
L 107.693381 212.674961 
L 108.209731 226.782082 
L 108.72608 212.674961 
L 109.758779 212.674961 
L 110.275128 217.377335 
L 110.791478 212.674961 
L 111.307827 217.377335 
L 111.824177 212.674961 
L 117.50402 212.674961 
L 118.02037 203.270215 
L 118.536719 212.674961 
L 120.085768 212.674961 
L 120.602117 217.377335 
L 121.118467 217.377335 
L 121.634816 212.674961 
L 122.151165 212.674961 
L 122.667515 217.377335 
L 123.183864 212.674961 
L 123.700214 203.270215 
L 124.216563 212.674961 
L 124.732913 212.674961 
L 125.249262 217.377335 
L 125.765611 212.674961 
L 130.412756 212.674961 
L 130.929106 217.377335 
L 131.445455 203.270215 
L 131.961805 212.674961 
L 132.478154 212.674961 
L 132.994504 217.377335 
L 134.027202 217.377335 
L 134.543552 212.674961 
L 136.0926 212.674961 
L 136.60895 217.377335 
L 137.641648 217.377335 
L 138.157998 212.674961 
L 138.674347 212.674961 
L 139.190697 217.377335 
L 140.223396 217.377335 
L 140.739745 212.674961 
L 142.805143 212.674961 
L 143.321492 217.377335 
L 143.837842 212.674961 
L 144.354191 217.377335 
L 144.870541 217.377335 
L 145.38689 212.674961 
L 145.903239 217.377335 
L 146.419589 226.782082 
L 146.935938 217.377335 
L 147.452288 217.377335 
L 147.968637 212.674961 
L 148.484987 217.377335 
L 151.066734 217.377335 
L 151.583083 212.674961 
L 152.099433 212.674961 
L 152.615782 217.377335 
L 153.132132 226.782082 
L 153.648481 212.674961 
L 154.16483 217.377335 
L 155.713879 217.377335 
L 156.230228 212.674961 
L 156.746578 217.377335 
L 161.910072 217.377335 
L 162.426421 212.674961 
L 163.45912 212.674961 
L 163.97547 217.377335 
L 165.524518 217.377335 
L 166.040867 226.782082 
L 166.557217 217.377335 
L 168.622615 217.377335 
L 169.138964 226.782082 
L 169.655313 217.377335 
L 170.171663 217.377335 
L 170.688012 212.674961 
L 171.204362 217.377335 
L 171.720711 212.674961 
L 172.237061 217.377335 
L 175.335157 217.377335 
L 175.851507 226.782082 
L 176.367856 217.377335 
L 177.916904 217.377335 
L 178.433254 226.782082 
L 178.949603 212.674961 
L 179.465953 217.377335 
L 180.498652 217.377335 
L 181.015001 226.782082 
L 181.531351 217.377335 
L 184.113098 217.377335 
L 184.629447 226.782082 
L 185.145797 217.377335 
L 186.694845 217.377335 
L 187.211194 212.674961 
L 187.727544 212.674961 
L 188.243893 217.377335 
L 189.276592 217.377335 
L 189.792941 226.782082 
L 190.309291 217.377335 
L 190.82564 212.674961 
L 191.34199 217.377335 
L 191.858339 217.377335 
L 192.374689 212.674961 
L 192.891038 226.782082 
L 193.407388 217.377335 
L 193.923737 226.782082 
L 194.440086 217.377335 
L 197.021834 217.377335 
L 197.538183 226.782082 
L 198.054532 217.377335 
L 198.570882 217.377335 
L 199.087231 212.674961 
L 199.603581 217.377335 
L 201.152629 217.377335 
L 201.668979 226.782082 
L 202.185328 217.377335 
L 202.701677 226.782082 
L 203.218027 217.377335 
L 203.734376 226.782082 
L 204.250726 217.377335 
L 204.767075 217.377335 
L 205.283425 226.782082 
L 205.799774 226.782082 
L 206.316123 217.377335 
L 207.348822 217.377335 
L 207.865172 226.782082 
L 208.381521 217.377335 
L 208.897871 226.782082 
L 210.446919 226.782082 
L 210.963268 217.377335 
L 211.479618 226.782082 
L 211.995967 226.782082 
L 212.512317 217.377335 
L 213.028666 226.782082 
L 213.545016 217.377335 
L 214.061365 226.782082 
L 215.094064 226.782082 
L 215.610413 217.377335 
L 216.126763 226.782082 
L 216.643112 217.377335 
L 217.159462 217.377335 
L 217.675811 226.782082 
L 218.19216 217.377335 
L 218.70851 226.782082 
L 219.224859 226.782082 
L 219.741209 217.377335 
L 220.257558 217.377335 
L 220.773908 226.782082 
L 221.290257 217.377335 
L 222.839305 217.377335 
L 223.355655 226.782082 
L 223.872004 217.377335 
L 224.388354 226.782082 
L 224.904703 217.377335 
L 225.421053 217.377335 
L 225.937402 226.782082 
L 226.970101 226.782082 
L 227.48645 217.377335 
L 228.0028 226.782082 
L 229.035499 226.782082 
L 229.551848 217.377335 
L 230.068197 217.377335 
L 230.584547 226.782082 
L 231.100896 226.782082 
L 231.617246 217.377335 
L 232.133595 226.782082 
L 232.649945 226.782082 
L 233.166294 217.377335 
L 233.682644 226.782082 
L 234.715342 226.782082 
L 235.231692 231.484455 
L 235.748041 226.782082 
L 237.813439 226.782082 
L 238.329788 231.484455 
L 238.846138 226.782082 
L 239.362487 217.377335 
L 240.395186 217.377335 
L 240.911536 226.782082 
L 241.427885 231.484455 
L 241.944235 217.377335 
L 242.460584 226.782082 
L 244.009632 226.782082 
L 244.525982 217.377335 
L 245.042331 217.377335 
L 245.558681 226.782082 
L 246.07503 217.377335 
L 246.591379 240.889202 
L 247.107729 226.782082 
L 247.624078 226.782082 
L 248.140428 231.484455 
L 248.656777 226.782082 
L 250.205825 226.782082 
L 250.722175 217.377335 
L 251.238524 226.782082 
L 252.271223 226.782082 
L 252.787573 231.484455 
L 253.303922 226.782082 
L 253.820272 217.377335 
L 254.336621 226.782082 
L 255.36932 226.782082 
L 255.885669 231.484455 
L 256.402019 217.377335 
L 256.918368 231.484455 
L 257.434718 226.782082 
L 257.951067 231.484455 
L 258.467416 226.782082 
L 258.983766 231.484455 
L 259.500115 226.782082 
L 260.016465 231.484455 
L 260.532814 226.782082 
L 261.049164 226.782082 
L 261.565513 231.484455 
L 262.081863 231.484455 
L 262.598212 226.782082 
L 263.114561 231.484455 
L 263.630911 226.782082 
L 264.14726 231.484455 
L 265.179959 231.484455 
L 265.696309 226.782082 
L 266.212658 231.484455 
L 266.729007 226.782082 
L 267.245357 231.484455 
L 267.761706 226.782082 
L 269.310755 226.782082 
L 269.827104 231.484455 
L 270.343453 226.782082 
L 271.892502 226.782082 
L 272.408851 231.484455 
L 272.925201 231.484455 
L 273.44155 226.782082 
L 274.474249 226.782082 
L 274.990598 231.484455 
L 275.506948 226.782082 
L 276.023297 231.484455 
L 276.539647 231.484455 
L 277.055996 226.782082 
L 278.088695 226.782082 
L 278.605044 231.484455 
L 279.121394 226.782082 
L 279.637743 226.782082 
L 280.154093 231.484455 
L 280.670442 226.782082 
L 281.703141 226.782082 
L 282.219491 231.484455 
L 282.73584 217.377335 
L 283.252189 226.782082 
L 283.768539 231.484455 
L 284.284888 226.782082 
L 284.801238 226.782082 
L 285.317587 231.484455 
L 285.833937 226.782082 
L 286.350286 231.484455 
L 286.866635 231.484455 
L 287.382985 226.782082 
L 287.899334 231.484455 
L 288.415684 231.484455 
L 288.932033 226.782082 
L 289.448383 231.484455 
L 289.964732 226.782082 
L 291.51378 226.782082 
L 292.03013 231.484455 
L 293.062829 231.484455 
L 293.579178 226.782082 
L 294.095528 231.484455 
L 294.611877 231.484455 
L 295.128226 226.782082 
L 296.160925 226.782082 
L 296.677275 231.484455 
L 297.193624 226.782082 
L 298.226323 226.782082 
L 298.742672 231.484455 
L 299.775371 231.484455 
L 300.291721 226.782082 
L 300.80807 240.889202 
L 301.32442 226.782082 
L 301.840769 231.484455 
L 302.357119 226.782082 
L 302.873468 231.484455 
L 303.389817 226.782082 
L 303.906167 231.484455 
L 305.971565 231.484455 
L 306.487914 226.782082 
L 308.036962 226.782082 
L 308.553312 217.377335 
L 309.069661 226.782082 
L 310.10236 226.782082 
L 310.61871 231.484455 
L 311.135059 231.484455 
L 311.651408 217.377335 
L 312.167758 226.782082 
L 312.684107 231.484455 
L 313.200457 231.484455 
L 313.716806 240.889202 
L 314.233156 231.484455 
L 314.749505 226.782082 
L 315.782204 226.782082 
L 316.298553 245.591575 
L 316.814903 231.484455 
L 317.331252 231.484455 
L 317.847602 240.889202 
L 318.363951 226.782082 
L 318.8803 240.889202 
L 319.39665 226.782082 
L 319.912999 231.484455 
L 320.429349 231.484455 
L 320.945698 212.674961 
L 321.462048 226.782082 
L 321.978397 217.377335 
L 322.494747 226.782082 
L 323.011096 226.782082 
L 323.527445 231.484455 
L 324.043795 226.782082 
L 324.560144 226.782082 
L 325.076494 217.377335 
L 325.592843 226.782082 
L 327.658241 226.782082 
L 328.17459 240.889202 
L 328.69094 226.782082 
L 330.756338 226.782082 
L 331.272687 231.484455 
L 331.789036 231.484455 
L 332.305386 226.782082 
L 334.370784 226.782082 
L 334.887133 217.377335 
L 335.403482 226.782082 
L 335.919832 226.782082 
L 336.436181 217.377335 
L 336.952531 226.782082 
L 340.050627 226.782082 
L 340.566977 217.377335 
L 341.083326 226.782082 
L 343.148724 226.782082 
L 343.665073 217.377335 
L 344.181423 217.377335 
L 344.697772 226.782082 
L 346.246821 57.496638 
L 346.76317 19.877651 
L 347.279519 48.091891 
L 347.795869 48.091891 
L 348.312218 57.496638 
L 348.828568 57.496638 
L 349.861267 15.175277 
L 350.377616 15.175277 
L 350.893966 29.282398 
L 351.410315 19.877651 
L 351.926664 29.282398 
L 352.443014 19.877651 
L 352.959363 29.282398 
L 401.238036 118.627493 
L 405.110656 113.925119 
L 408.983277 90.413252 
L 412.855898 85.710879 
L 412.855898 85.710879 
" clip-path="url(#p3f61b2b6be)" style="fill: none; stroke: #0000ff; stroke-width: 0.5; stroke-linecap: square"/>
   </g>
   <g id="line2d_17">
    <path d="M 64.320029 203.270215 
L 79.810512 203.270215 
L 95.300995 203.270215 
L 110.791478 212.674961 
L 126.281961 212.674961 
L 141.772444 212.674961 
L 157.262927 217.377335 
L 172.75341 217.377335 
L 188.243893 217.377335 
L 203.734376 226.782082 
L 219.224859 226.782082 
L 234.715342 226.782082 
L 250.205825 226.782082 
L 265.696309 226.782082 
L 281.186792 226.782082 
L 296.677275 231.484455 
L 312.167758 226.782082 
L 327.658241 226.782082 
L 343.148724 226.782082 
M 405.110656 113.925119 
" clip-path="url(#p3f61b2b6be)" style="fill: none; stroke: #ff0000; stroke-width: 1.5; stroke-linecap: square"/>
   </g>
   <g id="patch_3">
    <path d="M 40.387232 257.11239 
L 40.387232 3.654462 
" style="fill: none; stroke: #000000; stroke-width: 0.8; stroke-linejoin: miter; stroke-linecap: square"/>
   </g>
   <g id="patch_4">
    <path d="M 430.592501 257.11239 
L 430.592501 3.654462 
" style="fill: none; stroke: #000000; stroke-width: 0.8; stroke-linejoin: miter; stroke-linecap: square"/>
   </g>
   <g id="patch_5">
    <path d="M 40.387232 257.11239 
L 430.592501 257.11239 
" style="fill: none; stroke: #000000; stroke-width: 0.8; stroke-linejoin: miter; stroke-linecap: square"/>
   </g>
   <g id="patch_6">
    <path d="M 40.387232 3.654462 
L 430.592501 3.654462 
" style="fill: none; stroke: #000000; stroke-width: 0.8; stroke-linejoin: miter; stroke-linecap: square"/>
   </g>
  </g>
  <g id="axes_2">
   <g id="patch_7">
    <path d="M 470.230865 257.11239 
L 860.436134 257.11239 
L 860.436134 3.654462 
L 470.230865 3.654462 
z
" style="fill: #ffffff"/>
   </g>
   <g id="matplotlib.axis_3">
    <g id="xtick_10">
     <g id="line2d_18">
      <g>
       <use xlink:href="#mae90e1fac1" x="478.673179" y="257.11239" style="stroke: #000000; stroke-width: 0.8"/>
      </g>
     </g>
     <g id="text_19">
      <!-- 15:00 -->
      <g transform="translate(468.173067 269.649372) scale(0.07287 -0.07287)">
       <use xlink:href="#DejaVuSerif-31"/>
       <use xlink:href="#DejaVuSerif-35" transform="translate(63.623047 0)"/>
       <use xlink:href="#DejaVuSerif-3a" transform="translate(127.246094 0)"/>
       <use xlink:href="#DejaVuSerif-30" transform="translate(160.9375 0)"/>
       <use xlink:href="#DejaVuSerif-30" transform="translate(224.560547 0)"/>
      </g>
     </g>
    </g>
    <g id="xtick_11">
     <g id="line2d_19">
      <g>
       <use xlink:href="#mae90e1fac1" x="525.144628" y="257.11239" style="stroke: #000000; stroke-width: 0.8"/>
      </g>
     </g>
     <g id="text_20">
      <!-- 18:00 -->
      <g transform="translate(514.644516 269.649372) scale(0.07287 -0.07287)">
       <use xlink:href="#DejaVuSerif-31"/>
       <use xlink:href="#DejaVuSerif-38" transform="translate(63.623047 0)"/>
       <use xlink:href="#DejaVuSerif-3a" transform="translate(127.246094 0)"/>
       <use xlink:href="#DejaVuSerif-30" transform="translate(160.9375 0)"/>
       <use xlink:href="#DejaVuSerif-30" transform="translate(224.560547 0)"/>
      </g>
     </g>
    </g>
    <g id="xtick_12">
     <g id="line2d_20">
      <g>
       <use xlink:href="#mae90e1fac1" x="571.616077" y="257.11239" style="stroke: #000000; stroke-width: 0.8"/>
      </g>
     </g>
     <g id="text_21">
      <!-- 21:00 -->
      <g transform="translate(561.115966 269.649372) scale(0.07287 -0.07287)">
       <use xlink:href="#DejaVuSerif-32"/>
       <use xlink:href="#DejaVuSerif-31" transform="translate(63.623047 0)"/>
       <use xlink:href="#DejaVuSerif-3a" transform="translate(127.246094 0)"/>
       <use xlink:href="#DejaVuSerif-30" transform="translate(160.9375 0)"/>
       <use xlink:href="#DejaVuSerif-30" transform="translate(224.560547 0)"/>
      </g>
     </g>
    </g>
    <g id="xtick_13">
     <g id="line2d_21">
      <g>
       <use xlink:href="#mae90e1fac1" x="618.087526" y="257.11239" style="stroke: #000000; stroke-width: 0.8"/>
      </g>
     </g>
     <g id="text_22">
      <!-- May-07 -->
      <g transform="translate(604.258167 269.54576) scale(0.07287 -0.07287)">
       <use xlink:href="#DejaVuSerif-4d"/>
       <use xlink:href="#DejaVuSerif-61" transform="translate(102.392578 0)"/>
       <use xlink:href="#DejaVuSerif-79" transform="translate(162.011719 0)"/>
       <use xlink:href="#DejaVuSerif-2d" transform="translate(218.505859 0)"/>
       <use xlink:href="#DejaVuSerif-30" transform="translate(252.294922 0)"/>
       <use xlink:href="#DejaVuSerif-37" transform="translate(315.917969 0)"/>
      </g>
     </g>
    </g>
    <g id="xtick_14">
     <g id="line2d_22">
      <g>
       <use xlink:href="#mae90e1fac1" x="664.558976" y="257.11239" style="stroke: #000000; stroke-width: 0.8"/>
      </g>
     </g>
     <g id="text_23">
      <!-- 03:00 -->
      <g transform="translate(654.058864 269.649372) scale(0.07287 -0.07287)">
       <use xlink:href="#DejaVuSerif-30"/>
       <use xlink:href="#DejaVuSerif-33" transform="translate(63.623047 0)"/>
       <use xlink:href="#DejaVuSerif-3a" transform="translate(127.246094 0)"/>
       <use xlink:href="#DejaVuSerif-30" transform="translate(160.9375 0)"/>
       <use xlink:href="#DejaVuSerif-30" transform="translate(224.560547 0)"/>
      </g>
     </g>
    </g>
    <g id="xtick_15">
     <g id="line2d_23">
      <g>
       <use xlink:href="#mae90e1fac1" x="711.030425" y="257.11239" style="stroke: #000000; stroke-width: 0.8"/>
      </g>
     </g>
     <g id="text_24">
      <!-- 06:00 -->
      <g transform="translate(700.530313 269.649372) scale(0.07287 -0.07287)">
       <use xlink:href="#DejaVuSerif-30"/>
       <use xlink:href="#DejaVuSerif-36" transform="translate(63.623047 0)"/>
       <use xlink:href="#DejaVuSerif-3a" transform="translate(127.246094 0)"/>
       <use xlink:href="#DejaVuSerif-30" transform="translate(160.9375 0)"/>
       <use xlink:href="#DejaVuSerif-30" transform="translate(224.560547 0)"/>
      </g>
     </g>
    </g>
    <g id="xtick_16">
     <g id="line2d_24">
      <g>
       <use xlink:href="#mae90e1fac1" x="757.501874" y="257.11239" style="stroke: #000000; stroke-width: 0.8"/>
      </g>
     </g>
     <g id="text_25">
      <!-- 09:00 -->
      <g transform="translate(747.001763 269.649372) scale(0.07287 -0.07287)">
       <use xlink:href="#DejaVuSerif-30"/>
       <use xlink:href="#DejaVuSerif-39" transform="translate(63.623047 0)"/>
       <use xlink:href="#DejaVuSerif-3a" transform="translate(127.246094 0)"/>
       <use xlink:href="#DejaVuSerif-30" transform="translate(160.9375 0)"/>
       <use xlink:href="#DejaVuSerif-30" transform="translate(224.560547 0)"/>
      </g>
     </g>
    </g>
    <g id="xtick_17">
     <g id="line2d_25">
      <g>
       <use xlink:href="#mae90e1fac1" x="803.973323" y="257.11239" style="stroke: #000000; stroke-width: 0.8"/>
      </g>
     </g>
     <g id="text_26">
      <!-- 12:00 -->
      <g transform="translate(793.473212 269.649372) scale(0.07287 -0.07287)">
       <use xlink:href="#DejaVuSerif-31"/>
       <use xlink:href="#DejaVuSerif-32" transform="translate(63.623047 0)"/>
       <use xlink:href="#DejaVuSerif-3a" transform="translate(127.246094 0)"/>
       <use xlink:href="#DejaVuSerif-30" transform="translate(160.9375 0)"/>
       <use xlink:href="#DejaVuSerif-30" transform="translate(224.560547 0)"/>
      </g>
     </g>
    </g>
    <g id="xtick_18">
     <g id="line2d_26">
      <g>
       <use xlink:href="#mae90e1fac1" x="850.444773" y="257.11239" style="stroke: #000000; stroke-width: 0.8"/>
      </g>
     </g>
     <g id="text_27">
      <!-- 15:00 -->
      <g transform="translate(839.944661 269.649372) scale(0.07287 -0.07287)">
       <use xlink:href="#DejaVuSerif-31"/>
       <use xlink:href="#DejaVuSerif-35" transform="translate(63.623047 0)"/>
       <use xlink:href="#DejaVuSerif-3a" transform="translate(127.246094 0)"/>
       <use xlink:href="#DejaVuSerif-30" transform="translate(160.9375 0)"/>
       <use xlink:href="#DejaVuSerif-30" transform="translate(224.560547 0)"/>
      </g>
     </g>
    </g>
    <g id="text_28">
     <!-- Time -->
     <g transform="translate(652.066586 283.143199) scale(0.105 -0.105)">
      <use xlink:href="#DejaVuSerif-54"/>
      <use xlink:href="#DejaVuSerif-69" transform="translate(66.699219 0)"/>
      <use xlink:href="#DejaVuSerif-6d" transform="translate(98.681641 0)"/>
      <use xlink:href="#DejaVuSerif-65" transform="translate(193.505859 0)"/>
     </g>
    </g>
    <g id="text_29">
     <!-- 2025-May-07 -->
     <g transform="translate(811.769222 279.598209) scale(0.07287 -0.07287)">
      <use xlink:href="#DejaVuSerif-32"/>
      <use xlink:href="#DejaVuSerif-30" transform="translate(63.623047 0)"/>
      <use xlink:href="#DejaVuSerif-32" transform="translate(127.246094 0)"/>
      <use xlink:href="#DejaVuSerif-35" transform="translate(190.869141 0)"/>
      <use xlink:href="#DejaVuSerif-2d" transform="translate(254.492188 0)"/>
      <use xlink:href="#DejaVuSerif-4d" transform="translate(288.28125 0)"/>
      <use xlink:href="#DejaVuSerif-61" transform="translate(390.673828 0)"/>
      <use xlink:href="#DejaVuSerif-79" transform="translate(450.292969 0)"/>
      <use xlink:href="#DejaVuSerif-2d" transform="translate(506.787109 0)"/>
      <use xlink:href="#DejaVuSerif-30" transform="translate(540.576172 0)"/>
      <use xlink:href="#DejaVuSerif-37" transform="translate(604.199219 0)"/>
     </g>
    </g>
   </g>
   <g id="matplotlib.axis_4">
    <g id="ytick_7">
     <g id="line2d_27">
      <g>
       <use xlink:href="#m1cc99cddf5" x="470.230865" y="232.668988" style="stroke: #000000; stroke-width: 0.8"/>
      </g>
     </g>
     <g id="text_30">
      <!-- 22 -->
      <g transform="translate(453.958158 235.437479) scale(0.07287 -0.07287)">
       <use xlink:href="#DejaVuSerif-32"/>
       <use xlink:href="#DejaVuSerif-32" transform="translate(63.623047 0)"/>
      </g>
     </g>
    </g>
    <g id="ytick_8">
     <g id="line2d_28">
      <g>
       <use xlink:href="#m1cc99cddf5" x="470.230865" y="188.863608" style="stroke: #000000; stroke-width: 0.8"/>
      </g>
     </g>
     <g id="text_31">
      <!-- 24 -->
      <g transform="translate(453.958158 191.632099) scale(0.07287 -0.07287)">
       <defs>
        <path id="DejaVuSerif-34" d="M 2234 1581 
L 2234 4063 
L 641 1581 
L 2234 1581 
z
M 3609 0 
L 1484 0 
L 1484 331 
L 2234 331 
L 2234 1247 
L 197 1247 
L 197 1588 
L 2241 4750 
L 2859 4750 
L 2859 1581 
L 3750 1581 
L 3750 1247 
L 2859 1247 
L 2859 331 
L 3609 331 
L 3609 0 
z
" transform="scale(0.015625)"/>
       </defs>
       <use xlink:href="#DejaVuSerif-32"/>
       <use xlink:href="#DejaVuSerif-34" transform="translate(63.623047 0)"/>
      </g>
     </g>
    </g>
    <g id="ytick_9">
     <g id="line2d_29">
      <g>
       <use xlink:href="#m1cc99cddf5" x="470.230865" y="145.058229" style="stroke: #000000; stroke-width: 0.8"/>
      </g>
     </g>
     <g id="text_32">
      <!-- 26 -->
      <g transform="translate(453.958158 147.826719) scale(0.07287 -0.07287)">
       <use xlink:href="#DejaVuSerif-32"/>
       <use xlink:href="#DejaVuSerif-36" transform="translate(63.623047 0)"/>
      </g>
     </g>
    </g>
    <g id="ytick_10">
     <g id="line2d_30">
      <g>
       <use xlink:href="#m1cc99cddf5" x="470.230865" y="101.252849" style="stroke: #000000; stroke-width: 0.8"/>
      </g>
     </g>
     <g id="text_33">
      <!-- 28 -->
      <g transform="translate(453.958158 104.021339) scale(0.07287 -0.07287)">
       <use xlink:href="#DejaVuSerif-32"/>
       <use xlink:href="#DejaVuSerif-38" transform="translate(63.623047 0)"/>
      </g>
     </g>
    </g>
    <g id="ytick_11">
     <g id="line2d_31">
      <g>
       <use xlink:href="#m1cc99cddf5" x="470.230865" y="57.447469" style="stroke: #000000; stroke-width: 0.8"/>
      </g>
     </g>
     <g id="text_34">
      <!-- 30 -->
      <g transform="translate(453.958158 60.21596) scale(0.07287 -0.07287)">
       <use xlink:href="#DejaVuSerif-33"/>
       <use xlink:href="#DejaVuSerif-30" transform="translate(63.623047 0)"/>
      </g>
     </g>
    </g>
    <g id="ytick_12">
     <g id="line2d_32">
      <g>
       <use xlink:href="#m1cc99cddf5" x="470.230865" y="13.642089" style="stroke: #000000; stroke-width: 0.8"/>
      </g>
     </g>
     <g id="text_35">
      <!-- 32 -->
      <g transform="translate(453.958158 16.41058) scale(0.07287 -0.07287)">
       <use xlink:href="#DejaVuSerif-33"/>
       <use xlink:href="#DejaVuSerif-32" transform="translate(63.623047 0)"/>
      </g>
     </g>
    </g>
    <g id="text_36">
     <!-- TEMP. [°C] -->
     <g transform="translate(447.774486 159.638231) rotate(-90) scale(0.105 -0.105)">
      <defs>
       <path id="DejaVuSerif-45" d="M 353 0 
L 353 331 
L 947 331 
L 947 4331 
L 353 4331 
L 353 4666 
L 4109 4666 
L 4109 3628 
L 3725 3628 
L 3725 4281 
L 1581 4281 
L 1581 2719 
L 3109 2719 
L 3109 3303 
L 3494 3303 
L 3494 1753 
L 3109 1753 
L 3109 2338 
L 1581 2338 
L 1581 384 
L 3775 384 
L 3775 1038 
L 4159 1038 
L 4159 0 
L 353 0 
z
" transform="scale(0.015625)"/>
       <path id="DejaVuSerif-50" d="M 1581 2375 
L 2406 2375 
Q 2872 2375 3115 2626 
Q 3359 2878 3359 3353 
Q 3359 3831 3115 4081 
Q 2872 4331 2406 4331 
L 1581 4331 
L 1581 2375 
z
M 353 0 
L 353 331 
L 947 331 
L 947 4331 
L 353 4331 
L 353 4666 
L 2559 4666 
Q 3259 4666 3668 4311 
Q 4078 3956 4078 3353 
Q 4078 2753 3668 2397 
Q 3259 2041 2559 2041 
L 1581 2041 
L 1581 331 
L 2303 331 
L 2303 0 
L 353 0 
z
" transform="scale(0.015625)"/>
       <path id="DejaVuSerif-b0" d="M 1600 4319 
Q 1363 4319 1200 4155 
Q 1038 3991 1038 3750 
Q 1038 3513 1198 3353 
Q 1359 3194 1600 3194 
Q 1838 3194 2000 3355 
Q 2163 3516 2163 3750 
Q 2163 3984 1997 4151 
Q 1831 4319 1600 4319 
z
M 1600 4750 
Q 1800 4750 1984 4673 
Q 2169 4597 2303 4453 
Q 2447 4313 2519 4134 
Q 2591 3956 2591 3750 
Q 2591 3338 2302 3052 
Q 2013 2766 1594 2766 
Q 1172 2766 890 3047 
Q 609 3328 609 3750 
Q 609 4169 896 4459 
Q 1184 4750 1600 4750 
z
" transform="scale(0.015625)"/>
       <path id="DejaVuSerif-43" d="M 4513 1234 
Q 4306 581 3820 245 
Q 3334 -91 2591 -91 
Q 2134 -91 1743 65 
Q 1353 222 1050 525 
Q 700 875 529 1320 
Q 359 1766 359 2328 
Q 359 3416 987 4083 
Q 1616 4750 2644 4750 
Q 3025 4750 3456 4650 
Q 3888 4550 4384 4347 
L 4384 3272 
L 4031 3272 
Q 3916 3859 3567 4137 
Q 3219 4416 2591 4416 
Q 1844 4416 1459 3886 
Q 1075 3356 1075 2328 
Q 1075 1303 1459 773 
Q 1844 244 2591 244 
Q 3113 244 3450 492 
Q 3788 741 3938 1234 
L 4513 1234 
z
" transform="scale(0.015625)"/>
      </defs>
      <use xlink:href="#DejaVuSerif-54"/>
      <use xlink:href="#DejaVuSerif-45" transform="translate(66.699219 0)"/>
      <use xlink:href="#DejaVuSerif-4d" transform="translate(139.697266 0)"/>
      <use xlink:href="#DejaVuSerif-50" transform="translate(242.089844 0)"/>
      <use xlink:href="#DejaVuSerif-2e" transform="translate(289.125 0)"/>
      <use xlink:href="#DejaVuSerif-20" transform="translate(320.912109 0)"/>
      <use xlink:href="#DejaVuSerif-5b" transform="translate(352.699219 0)"/>
      <use xlink:href="#DejaVuSerif-b0" transform="translate(391.712891 0)"/>
      <use xlink:href="#DejaVuSerif-43" transform="translate(441.712891 0)"/>
      <use xlink:href="#DejaVuSerif-5d" transform="translate(518.226562 0)"/>
     </g>
    </g>
   </g>
   <g id="line2d_33">
    <path d="M 487.967469 165.865784 
L 488.483818 165.865784 
L 489.000167 166.741892 
L 489.516517 170.246322 
L 490.032866 170.465349 
L 490.549216 171.341457 
L 491.065565 173.093672 
L 491.581915 173.969779 
L 492.098264 173.312699 
L 492.614614 173.750752 
L 493.130963 171.560483 
L 493.647312 171.77951 
L 494.163662 172.436591 
L 494.680011 173.312699 
L 495.196361 173.312699 
L 495.71271 172.655618 
L 496.745409 174.62686 
L 497.261758 174.845887 
L 497.778108 175.283941 
L 498.294457 175.502968 
L 498.810807 176.817129 
L 499.327156 177.255183 
L 499.843506 176.379075 
L 500.359855 176.598102 
L 500.876204 176.598102 
L 501.392554 176.160048 
L 501.908903 177.47421 
L 502.425253 177.47421 
L 502.941602 178.13129 
L 503.457952 177.255183 
L 503.974301 177.912264 
L 504.490651 176.817129 
L 505.007 178.13129 
L 505.523349 178.350317 
L 506.039699 178.13129 
L 506.556048 177.47421 
L 507.072398 179.226425 
L 507.588747 179.226425 
L 508.105097 178.350317 
L 509.137795 178.350317 
L 509.654145 177.47421 
L 510.170494 178.13129 
L 511.203193 178.13129 
L 511.719543 177.912264 
L 512.235892 177.47421 
L 512.752242 178.788371 
L 513.268591 179.664479 
L 513.78494 180.97864 
L 514.30129 179.007398 
L 514.817639 179.445452 
L 515.333989 179.664479 
L 515.850338 177.912264 
L 516.366688 177.47421 
L 516.883037 177.912264 
L 517.399386 177.47421 
L 517.915736 177.912264 
L 518.948435 175.941021 
L 519.464784 175.941021 
L 519.981134 177.255183 
L 521.013832 177.693237 
L 521.530182 180.321559 
L 522.046531 179.226425 
L 522.562881 179.883506 
L 523.07923 180.102533 
L 523.59558 180.540586 
L 524.111929 180.759613 
L 524.628279 180.102533 
L 525.144628 179.883506 
L 525.660977 180.102533 
L 526.177327 180.97864 
L 526.693676 180.97864 
L 527.210026 181.416694 
L 527.726375 180.97864 
L 528.242725 180.759613 
L 528.759074 181.416694 
L 529.275423 179.883506 
L 530.308122 180.759613 
L 530.824472 178.350317 
L 531.340821 179.664479 
L 531.857171 178.569344 
L 532.37352 178.569344 
L 532.88987 180.102533 
L 533.406219 179.226425 
L 533.922568 179.007398 
L 534.438918 179.445452 
L 534.955267 179.007398 
L 535.471617 179.226425 
L 535.987966 180.321559 
L 536.504316 179.226425 
L 537.020665 179.664479 
L 537.537014 180.540586 
L 538.053364 180.759613 
L 538.569713 180.102533 
L 539.086063 181.635721 
L 539.602412 181.635721 
L 540.118762 180.759613 
L 540.635111 180.759613 
L 541.15146 181.197667 
L 541.66781 180.321559 
L 542.184159 180.759613 
L 542.700509 180.321559 
L 543.216858 181.416694 
L 543.733208 180.540586 
L 544.249557 181.635721 
L 544.765907 180.97864 
L 545.282256 180.97864 
L 545.798605 181.854748 
L 546.314955 181.635721 
L 546.831304 181.197667 
L 547.347654 182.073775 
L 547.864003 182.292802 
L 548.380353 182.292802 
L 548.896702 182.730855 
L 549.929401 182.292802 
L 550.44575 182.292802 
L 550.9621 183.387936 
L 551.478449 182.949882 
L 551.994799 182.292802 
L 552.511148 182.511828 
L 553.027498 181.854748 
L 553.543847 182.730855 
L 554.060196 182.730855 
L 554.576546 183.606963 
L 555.092895 183.387936 
L 555.609245 185.578205 
L 556.125594 183.82599 
L 556.641944 183.82599 
L 557.158293 185.140151 
L 557.674642 185.140151 
L 558.190992 184.045017 
L 558.707341 185.578205 
L 559.223691 184.921124 
L 559.74004 184.702097 
L 560.25639 185.578205 
L 560.772739 185.578205 
L 561.289089 186.673339 
L 561.805438 185.578205 
L 562.321787 186.673339 
L 562.838137 186.892366 
L 563.354486 187.33042 
L 563.870836 186.454313 
L 564.903535 187.768474 
L 565.419884 187.549447 
L 566.452583 188.863608 
L 566.968932 188.863608 
L 567.485282 188.425555 
L 568.001631 188.863608 
L 568.517981 189.082635 
L 569.550679 189.958743 
L 570.067029 191.053877 
L 570.583378 190.615824 
L 571.616077 191.491931 
L 572.132427 191.272904 
L 572.648776 192.368039 
L 573.165126 192.149012 
L 573.681475 192.149012 
L 574.714174 191.272904 
L 575.230523 190.396797 
L 575.746873 192.587066 
L 576.779572 190.615824 
L 577.81227 192.806093 
L 578.32862 193.02512 
L 578.844969 194.558308 
L 580.394018 195.215389 
L 580.910367 195.215389 
L 581.426717 193.6822 
L 581.943066 194.120254 
L 582.459415 194.339281 
L 582.975765 194.120254 
L 583.492114 195.653442 
L 584.008464 195.434415 
L 584.524813 196.748577 
L 585.041163 195.434415 
L 585.557512 196.52955 
L 586.073861 194.996362 
L 586.590211 196.967604 
L 587.10656 197.624684 
L 587.62291 197.186631 
L 588.139259 197.186631 
L 588.655609 196.967604 
L 589.171958 196.967604 
L 589.688307 198.500792 
L 590.204657 198.062738 
L 590.721006 198.500792 
L 591.237356 200.03398 
L 591.753705 200.472034 
L 592.270055 201.786196 
L 592.786404 201.786196 
L 593.819103 203.100357 
L 594.335452 202.88133 
L 594.851802 203.976465 
L 595.368151 204.633545 
L 595.884501 203.976465 
L 596.40085 204.195491 
L 596.9172 202.662303 
L 597.433549 202.443276 
L 597.949898 202.443276 
L 598.466248 203.757438 
L 598.982597 203.319384 
L 599.498947 204.414518 
L 600.015296 204.633545 
L 600.531646 203.100357 
L 601.047995 203.538411 
L 601.564345 204.852572 
L 602.080694 204.414518 
L 602.597043 205.290626 
L 603.113393 205.72868 
L 603.629742 204.414518 
L 604.146092 206.166734 
L 604.662441 206.38576 
L 605.178791 205.509653 
L 605.69514 205.071599 
L 606.211489 206.166734 
L 606.727839 206.604787 
L 607.244188 207.480895 
L 607.760538 206.38576 
L 608.276887 207.480895 
L 608.793237 206.604787 
L 609.309586 207.480895 
L 609.825935 207.261868 
L 610.342285 207.261868 
L 610.858634 208.357003 
L 611.374984 207.261868 
L 611.891333 207.261868 
L 612.407683 207.699922 
L 612.924032 208.576029 
L 613.440382 208.795056 
L 613.956731 208.576029 
L 614.47308 209.671164 
L 614.98943 209.014083 
L 615.505779 209.014083 
L 616.022129 209.890191 
L 616.538478 209.452137 
L 617.054828 210.547272 
L 617.571177 210.109218 
L 618.087526 210.109218 
L 618.603876 211.423379 
L 619.120225 210.985325 
L 619.636575 211.642406 
L 620.152924 211.423379 
L 620.669274 210.985325 
L 621.185623 211.861433 
L 621.701973 211.423379 
L 622.218322 211.642406 
L 622.734671 212.518514 
L 623.251021 212.73754 
L 623.76737 212.299487 
L 624.28372 213.175594 
L 624.800069 213.175594 
L 625.316419 214.270729 
L 625.832768 214.051702 
L 626.349117 214.270729 
L 627.381816 213.394621 
L 627.898166 214.051702 
L 628.414515 214.489756 
L 628.930865 213.832675 
L 629.447214 214.270729 
L 629.963563 214.927809 
L 630.479913 214.708783 
L 630.996262 215.58489 
L 631.512612 215.803917 
L 632.028961 216.241971 
L 632.545311 216.460998 
L 633.06166 216.241971 
L 633.57801 217.556132 
L 634.094359 217.775159 
L 634.610708 218.213213 
L 635.127058 218.870294 
L 635.643407 218.213213 
L 636.159757 218.651267 
L 636.676106 216.680025 
L 637.192456 217.118078 
L 637.708805 215.365863 
L 638.225154 217.118078 
L 638.741504 216.241971 
L 639.257853 216.241971 
L 640.290552 217.118078 
L 640.806902 217.775159 
L 641.323251 217.556132 
L 641.839601 216.241971 
L 642.35595 217.337105 
L 642.872299 217.337105 
L 643.388649 218.43224 
L 643.904998 217.118078 
L 644.421348 218.870294 
L 644.937697 217.337105 
L 645.454047 218.213213 
L 645.970396 218.43224 
L 646.486745 218.43224 
L 647.003095 217.775159 
L 647.519444 218.651267 
L 648.035794 218.43224 
L 648.552143 218.651267 
L 649.068493 218.213213 
L 649.584842 218.43224 
L 650.101191 216.899052 
L 650.617541 218.870294 
L 651.13389 218.43224 
L 651.65024 220.403482 
L 652.166589 220.841536 
L 652.682939 220.622509 
L 653.199288 220.622509 
L 653.715638 220.841536 
L 654.231987 222.374724 
L 654.748336 221.93667 
L 655.264686 222.374724 
L 655.781035 220.841536 
L 656.813734 222.812778 
L 657.330084 223.469859 
L 657.846433 223.469859 
L 658.362782 225.003047 
L 658.879132 224.126939 
L 659.395481 224.345966 
L 659.911831 223.907912 
L 660.42818 223.688885 
L 660.94453 223.250832 
L 661.460879 223.031805 
L 661.977229 222.593751 
L 662.493578 222.374724 
L 663.009927 222.374724 
L 663.526277 221.27959 
L 664.042626 222.593751 
L 664.558976 224.345966 
L 665.075325 224.126939 
L 665.591675 224.345966 
L 666.108024 224.126939 
L 666.624373 224.78402 
L 667.140723 225.003047 
L 667.657072 224.564993 
L 668.173422 225.003047 
L 668.689771 225.003047 
L 669.206121 225.441101 
L 669.72247 225.441101 
L 670.238819 224.78402 
L 670.755169 225.879154 
L 671.271518 225.441101 
L 671.787868 224.564993 
L 672.304217 226.098181 
L 673.336916 226.536235 
L 673.853266 226.536235 
L 674.369615 225.222074 
L 674.885964 225.879154 
L 675.402314 225.879154 
L 675.918663 225.003047 
L 676.435013 225.003047 
L 676.951362 223.031805 
L 677.984061 222.593751 
L 678.50041 224.564993 
L 679.533109 225.441101 
L 680.049459 227.193316 
L 680.565808 226.755262 
L 681.082158 228.069423 
L 681.598507 227.850397 
L 682.114857 227.193316 
L 682.631206 227.63137 
L 683.147555 227.193316 
L 683.663905 228.069423 
L 684.180254 228.069423 
L 684.696604 228.507477 
L 685.212953 228.507477 
L 685.729303 228.069423 
L 686.245652 227.193316 
L 686.762001 227.193316 
L 687.278351 227.412343 
L 688.31105 228.726504 
L 688.827399 228.507477 
L 689.343749 228.507477 
L 689.860098 229.821639 
L 690.376447 229.164558 
L 690.892797 228.945531 
L 691.409146 230.040666 
L 691.925496 230.697746 
L 692.441845 230.478719 
L 692.958195 229.821639 
L 693.474544 230.040666 
L 693.990894 230.478719 
L 694.507243 231.354827 
L 695.023592 230.040666 
L 695.539942 230.259692 
L 696.056291 230.259692 
L 696.572641 230.040666 
L 697.08899 230.478719 
L 697.60534 231.1358 
L 698.638038 230.259692 
L 699.154388 231.354827 
L 699.670737 230.916773 
L 700.187087 231.354827 
L 700.703436 232.011908 
L 701.219786 232.449961 
L 701.736135 232.230935 
L 702.252485 232.449961 
L 702.768834 232.449961 
L 703.285183 232.230935 
L 703.801533 231.573854 
L 704.317882 232.449961 
L 704.834232 232.449961 
L 705.866931 233.326069 
L 706.38328 234.202177 
L 706.899629 232.888015 
L 707.415979 232.011908 
L 707.932328 232.011908 
L 708.448678 232.230935 
L 708.965027 232.011908 
L 709.481377 230.697746 
L 709.997726 230.697746 
L 710.514076 230.040666 
L 711.030425 230.478719 
L 711.546774 229.821639 
L 712.063124 230.040666 
L 712.579473 230.697746 
L 713.095823 230.697746 
L 713.612172 230.040666 
L 714.128522 230.040666 
L 714.644871 229.164558 
L 715.16122 229.383585 
L 715.67757 229.383585 
L 716.193919 229.602612 
L 716.710269 228.945531 
L 717.226618 228.507477 
L 717.742968 227.412343 
L 718.259317 228.28845 
L 718.775666 226.974289 
L 719.292016 226.317208 
L 719.808365 224.345966 
L 720.841064 224.78402 
L 721.357414 224.564993 
L 721.873763 223.907912 
L 722.390113 222.374724 
L 722.906462 222.155697 
L 723.422811 221.498616 
L 723.939161 221.060563 
L 724.45551 219.308347 
L 724.97186 220.184455 
L 725.488209 219.308347 
L 726.004559 217.775159 
L 726.520908 217.556132 
L 727.553607 213.613648 
L 728.586306 211.642406 
L 729.102655 209.890191 
L 729.619005 209.890191 
L 730.135354 209.452137 
L 730.651704 208.576029 
L 731.168053 207.261868 
L 731.684402 203.976465 
L 732.200752 202.224249 
L 732.717101 201.129115 
L 733.7498 196.52955 
L 734.26615 195.215389 
L 734.782499 192.806093 
L 735.298848 192.149012 
L 735.815198 192.368039 
L 736.847897 189.958743 
L 737.364246 189.301662 
L 737.880596 189.082635 
L 738.913294 186.673339 
L 739.429644 183.606963 
L 739.945993 181.635721 
L 740.462343 176.598102 
L 741.495042 162.580381 
L 742.527741 144.620175 
L 744.076789 125.126781 
L 744.593138 118.555974 
L 745.625837 99.938687 
L 746.142187 93.805934 
L 747.174885 78.035997 
L 748.723934 62.485088 
L 749.240283 58.323577 
L 749.756633 55.476227 
L 750.272982 53.285958 
L 750.789332 48.686393 
L 751.305681 45.181963 
L 751.82203 47.153205 
L 752.33838 50.876662 
L 754.920127 83.730697 
L 755.436476 91.177611 
L 756.469175 97.967445 
L 756.985525 98.624526 
L 757.501874 100.376741 
L 758.018224 100.595768 
L 758.534573 99.281607 
L 759.050922 99.06258 
L 759.567272 100.376741 
L 760.083621 99.500634 
L 760.599971 102.128956 
L 761.11632 102.347983 
L 761.63267 103.224091 
L 762.149019 103.443118 
L 762.665369 103.443118 
L 763.181718 104.976306 
L 763.698067 104.100198 
L 764.214417 102.128956 
L 764.730766 102.786037 
L 765.247116 103.881172 
L 765.763465 103.662145 
L 766.796164 104.976306 
L 767.312513 107.385602 
L 767.828863 107.166575 
L 768.345212 108.26171 
L 768.861562 108.91879 
L 769.377911 108.480736 
L 769.894261 111.109059 
L 770.41061 111.328086 
L 770.92696 113.080301 
L 771.443309 114.394463 
L 771.959658 113.956409 
L 772.476008 111.985167 
L 772.992357 111.76614 
L 773.508707 103.005064 
L 774.025056 87.454154 
L 774.541406 68.179787 
L 776.090454 39.049209 
L 776.606803 15.175277 
L 777.123153 19.117762 
L 778.155852 45.839043 
L 778.672201 53.724012 
L 779.18855 55.476227 
L 779.7049 49.562501 
L 780.221249 45.620016 
L 781.253948 55.476227 
L 782.802997 64.894383 
L 831.081669 197.405658 
L 834.95429 199.814953 
L 838.82691 233.764123 
L 842.699531 245.591575 
L 842.699531 245.591575 
" clip-path="url(#p0bfc9dff3d)" style="fill: none; stroke: #0000ff; stroke-width: 0.5; stroke-linecap: square"/>
   </g>
   <g id="line2d_34">
    <path d="M 494.163662 172.436591 
L 509.654145 177.47421 
L 525.144628 179.883506 
L 540.635111 180.759613 
L 556.125594 183.82599 
L 571.616077 191.491931 
L 587.10656 197.624684 
L 602.597043 205.290626 
L 618.087526 210.109218 
L 633.57801 217.556132 
L 649.068493 218.213213 
L 664.558976 224.345966 
L 680.049459 227.193316 
L 695.539942 230.259692 
L 711.030425 230.478719 
L 726.520908 217.556132 
L 742.011391 153.819305 
L 757.501874 100.376741 
L 772.992357 111.76614 
M 834.95429 199.814953 
" clip-path="url(#p0bfc9dff3d)" style="fill: none; stroke: #ff0000; stroke-width: 1.5; stroke-linecap: square"/>
   </g>
   <g id="patch_8">
    <path d="M 470.230865 257.11239 
L 470.230865 3.654462 
" style="fill: none; stroke: #000000; stroke-width: 0.8; stroke-linejoin: miter; stroke-linecap: square"/>
   </g>
   <g id="patch_9">
    <path d="M 860.436134 257.11239 
L 860.436134 3.654462 
" style="fill: none; stroke: #000000; stroke-width: 0.8; stroke-linejoin: miter; stroke-linecap: square"/>
   </g>
   <g id="patch_10">
    <path d="M 470.230865 257.11239 
L 860.436134 257.11239 
" style="fill: none; stroke: #000000; stroke-width: 0.8; stroke-linejoin: miter; stroke-linecap: square"/>
   </g>
   <g id="patch_11">
    <path d="M 470.230865 3.654462 
L 860.436134 3.654462 
" style="fill: none; stroke: #000000; stroke-width: 0.8; stroke-linejoin: miter; stroke-linecap: square"/>
   </g>
  </g>
  <g id="axes_3">
   <g id="patch_12">
    <path d="M 40.387232 544.785279 
L 430.592501 544.785279 
L 430.592501 291.327351 
L 40.387232 291.327351 
z
" style="fill: #ffffff"/>
   </g>
   <g id="matplotlib.axis_5">
    <g id="xtick_19">
     <g id="line2d_35">
      <g>
       <use xlink:href="#mae90e1fac1" x="48.829545" y="544.785279" style="stroke: #000000; stroke-width: 0.8"/>
      </g>
     </g>
     <g id="text_37">
      <!-- 15:00 -->
      <g transform="translate(38.329434 557.32226) scale(0.07287 -0.07287)">
       <use xlink:href="#DejaVuSerif-31"/>
       <use xlink:href="#DejaVuSerif-35" transform="translate(63.623047 0)"/>
       <use xlink:href="#DejaVuSerif-3a" transform="translate(127.246094 0)"/>
       <use xlink:href="#DejaVuSerif-30" transform="translate(160.9375 0)"/>
       <use xlink:href="#DejaVuSerif-30" transform="translate(224.560547 0)"/>
      </g>
     </g>
    </g>
    <g id="xtick_20">
     <g id="line2d_36">
      <g>
       <use xlink:href="#mae90e1fac1" x="95.300995" y="544.785279" style="stroke: #000000; stroke-width: 0.8"/>
      </g>
     </g>
     <g id="text_38">
      <!-- 18:00 -->
      <g transform="translate(84.800883 557.32226) scale(0.07287 -0.07287)">
       <use xlink:href="#DejaVuSerif-31"/>
       <use xlink:href="#DejaVuSerif-38" transform="translate(63.623047 0)"/>
       <use xlink:href="#DejaVuSerif-3a" transform="translate(127.246094 0)"/>
       <use xlink:href="#DejaVuSerif-30" transform="translate(160.9375 0)"/>
       <use xlink:href="#DejaVuSerif-30" transform="translate(224.560547 0)"/>
      </g>
     </g>
    </g>
    <g id="xtick_21">
     <g id="line2d_37">
      <g>
       <use xlink:href="#mae90e1fac1" x="141.772444" y="544.785279" style="stroke: #000000; stroke-width: 0.8"/>
      </g>
     </g>
     <g id="text_39">
      <!-- 21:00 -->
      <g transform="translate(131.272332 557.32226) scale(0.07287 -0.07287)">
       <use xlink:href="#DejaVuSerif-32"/>
       <use xlink:href="#DejaVuSerif-31" transform="translate(63.623047 0)"/>
       <use xlink:href="#DejaVuSerif-3a" transform="translate(127.246094 0)"/>
       <use xlink:href="#DejaVuSerif-30" transform="translate(160.9375 0)"/>
       <use xlink:href="#DejaVuSerif-30" transform="translate(224.560547 0)"/>
      </g>
     </g>
    </g>
    <g id="xtick_22">
     <g id="line2d_38">
      <g>
       <use xlink:href="#mae90e1fac1" x="188.243893" y="544.785279" style="stroke: #000000; stroke-width: 0.8"/>
      </g>
     </g>
     <g id="text_40">
      <!-- May-07 -->
      <g transform="translate(174.414533 557.218648) scale(0.07287 -0.07287)">
       <use xlink:href="#DejaVuSerif-4d"/>
       <use xlink:href="#DejaVuSerif-61" transform="translate(102.392578 0)"/>
       <use xlink:href="#DejaVuSerif-79" transform="translate(162.011719 0)"/>
       <use xlink:href="#DejaVuSerif-2d" transform="translate(218.505859 0)"/>
       <use xlink:href="#DejaVuSerif-30" transform="translate(252.294922 0)"/>
       <use xlink:href="#DejaVuSerif-37" transform="translate(315.917969 0)"/>
      </g>
     </g>
    </g>
    <g id="xtick_23">
     <g id="line2d_39">
      <g>
       <use xlink:href="#mae90e1fac1" x="234.715342" y="544.785279" style="stroke: #000000; stroke-width: 0.8"/>
      </g>
     </g>
     <g id="text_41">
      <!-- 03:00 -->
      <g transform="translate(224.215231 557.32226) scale(0.07287 -0.07287)">
       <use xlink:href="#DejaVuSerif-30"/>
       <use xlink:href="#DejaVuSerif-33" transform="translate(63.623047 0)"/>
       <use xlink:href="#DejaVuSerif-3a" transform="translate(127.246094 0)"/>
       <use xlink:href="#DejaVuSerif-30" transform="translate(160.9375 0)"/>
       <use xlink:href="#DejaVuSerif-30" transform="translate(224.560547 0)"/>
      </g>
     </g>
    </g>
    <g id="xtick_24">
     <g id="line2d_40">
      <g>
       <use xlink:href="#mae90e1fac1" x="281.186792" y="544.785279" style="stroke: #000000; stroke-width: 0.8"/>
      </g>
     </g>
     <g id="text_42">
      <!-- 06:00 -->
      <g transform="translate(270.68668 557.32226) scale(0.07287 -0.07287)">
       <use xlink:href="#DejaVuSerif-30"/>
       <use xlink:href="#DejaVuSerif-36" transform="translate(63.623047 0)"/>
       <use xlink:href="#DejaVuSerif-3a" transform="translate(127.246094 0)"/>
       <use xlink:href="#DejaVuSerif-30" transform="translate(160.9375 0)"/>
       <use xlink:href="#DejaVuSerif-30" transform="translate(224.560547 0)"/>
      </g>
     </g>
    </g>
    <g id="xtick_25">
     <g id="line2d_41">
      <g>
       <use xlink:href="#mae90e1fac1" x="327.658241" y="544.785279" style="stroke: #000000; stroke-width: 0.8"/>
      </g>
     </g>
     <g id="text_43">
      <!-- 09:00 -->
      <g transform="translate(317.158129 557.32226) scale(0.07287 -0.07287)">
       <use xlink:href="#DejaVuSerif-30"/>
       <use xlink:href="#DejaVuSerif-39" transform="translate(63.623047 0)"/>
       <use xlink:href="#DejaVuSerif-3a" transform="translate(127.246094 0)"/>
       <use xlink:href="#DejaVuSerif-30" transform="translate(160.9375 0)"/>
       <use xlink:href="#DejaVuSerif-30" transform="translate(224.560547 0)"/>
      </g>
     </g>
    </g>
    <g id="xtick_26">
     <g id="line2d_42">
      <g>
       <use xlink:href="#mae90e1fac1" x="374.12969" y="544.785279" style="stroke: #000000; stroke-width: 0.8"/>
      </g>
     </g>
     <g id="text_44">
      <!-- 12:00 -->
      <g transform="translate(363.629579 557.32226) scale(0.07287 -0.07287)">
       <use xlink:href="#DejaVuSerif-31"/>
       <use xlink:href="#DejaVuSerif-32" transform="translate(63.623047 0)"/>
       <use xlink:href="#DejaVuSerif-3a" transform="translate(127.246094 0)"/>
       <use xlink:href="#DejaVuSerif-30" transform="translate(160.9375 0)"/>
       <use xlink:href="#DejaVuSerif-30" transform="translate(224.560547 0)"/>
      </g>
     </g>
    </g>
    <g id="xtick_27">
     <g id="line2d_43">
      <g>
       <use xlink:href="#mae90e1fac1" x="420.601139" y="544.785279" style="stroke: #000000; stroke-width: 0.8"/>
      </g>
     </g>
     <g id="text_45">
      <!-- 15:00 -->
      <g transform="translate(410.101028 557.32226) scale(0.07287 -0.07287)">
       <use xlink:href="#DejaVuSerif-31"/>
       <use xlink:href="#DejaVuSerif-35" transform="translate(63.623047 0)"/>
       <use xlink:href="#DejaVuSerif-3a" transform="translate(127.246094 0)"/>
       <use xlink:href="#DejaVuSerif-30" transform="translate(160.9375 0)"/>
       <use xlink:href="#DejaVuSerif-30" transform="translate(224.560547 0)"/>
      </g>
     </g>
    </g>
    <g id="text_46">
     <!-- Time -->
     <g transform="translate(222.222953 570.816088) scale(0.105 -0.105)">
      <use xlink:href="#DejaVuSerif-54"/>
      <use xlink:href="#DejaVuSerif-69" transform="translate(66.699219 0)"/>
      <use xlink:href="#DejaVuSerif-6d" transform="translate(98.681641 0)"/>
      <use xlink:href="#DejaVuSerif-65" transform="translate(193.505859 0)"/>
     </g>
    </g>
    <g id="text_47">
     <!-- 2025-May-07 -->
     <g transform="translate(381.925588 567.271098) scale(0.07287 -0.07287)">
      <use xlink:href="#DejaVuSerif-32"/>
      <use xlink:href="#DejaVuSerif-30" transform="translate(63.623047 0)"/>
      <use xlink:href="#DejaVuSerif-32" transform="translate(127.246094 0)"/>
      <use xlink:href="#DejaVuSerif-35" transform="translate(190.869141 0)"/>
      <use xlink:href="#DejaVuSerif-2d" transform="translate(254.492188 0)"/>
      <use xlink:href="#DejaVuSerif-4d" transform="translate(288.28125 0)"/>
      <use xlink:href="#DejaVuSerif-61" transform="translate(390.673828 0)"/>
      <use xlink:href="#DejaVuSerif-79" transform="translate(450.292969 0)"/>
      <use xlink:href="#DejaVuSerif-2d" transform="translate(506.787109 0)"/>
      <use xlink:href="#DejaVuSerif-30" transform="translate(540.576172 0)"/>
      <use xlink:href="#DejaVuSerif-37" transform="translate(604.199219 0)"/>
     </g>
    </g>
   </g>
   <g id="matplotlib.axis_6">
    <g id="ytick_13">
     <g id="line2d_44">
      <g>
       <use xlink:href="#m1cc99cddf5" x="40.387232" y="498.116215" style="stroke: #000000; stroke-width: 0.8"/>
      </g>
     </g>
     <g id="text_48">
      <!-- 20 -->
      <g transform="translate(24.114525 500.884706) scale(0.07287 -0.07287)">
       <use xlink:href="#DejaVuSerif-32"/>
       <use xlink:href="#DejaVuSerif-30" transform="translate(63.623047 0)"/>
      </g>
     </g>
    </g>
    <g id="ytick_14">
     <g id="line2d_45">
      <g>
       <use xlink:href="#m1cc99cddf5" x="40.387232" y="449.299203" style="stroke: #000000; stroke-width: 0.8"/>
      </g>
     </g>
     <g id="text_49">
      <!-- 22 -->
      <g transform="translate(24.114525 452.067694) scale(0.07287 -0.07287)">
       <use xlink:href="#DejaVuSerif-32"/>
       <use xlink:href="#DejaVuSerif-32" transform="translate(63.623047 0)"/>
      </g>
     </g>
    </g>
    <g id="ytick_15">
     <g id="line2d_46">
      <g>
       <use xlink:href="#m1cc99cddf5" x="40.387232" y="400.482191" style="stroke: #000000; stroke-width: 0.8"/>
      </g>
     </g>
     <g id="text_50">
      <!-- 24 -->
      <g transform="translate(24.114525 403.250681) scale(0.07287 -0.07287)">
       <use xlink:href="#DejaVuSerif-32"/>
       <use xlink:href="#DejaVuSerif-34" transform="translate(63.623047 0)"/>
      </g>
     </g>
    </g>
    <g id="ytick_16">
     <g id="line2d_47">
      <g>
       <use xlink:href="#m1cc99cddf5" x="40.387232" y="351.665178" style="stroke: #000000; stroke-width: 0.8"/>
      </g>
     </g>
     <g id="text_51">
      <!-- 26 -->
      <g transform="translate(24.114525 354.433669) scale(0.07287 -0.07287)">
       <use xlink:href="#DejaVuSerif-32"/>
       <use xlink:href="#DejaVuSerif-36" transform="translate(63.623047 0)"/>
      </g>
     </g>
    </g>
    <g id="ytick_17">
     <g id="line2d_48">
      <g>
       <use xlink:href="#m1cc99cddf5" x="40.387232" y="302.848166" style="stroke: #000000; stroke-width: 0.8"/>
      </g>
     </g>
     <g id="text_52">
      <!-- 28 -->
      <g transform="translate(24.114525 305.616657) scale(0.07287 -0.07287)">
       <use xlink:href="#DejaVuSerif-32"/>
       <use xlink:href="#DejaVuSerif-38" transform="translate(63.623047 0)"/>
      </g>
     </g>
    </g>
    <g id="text_53">
     <!-- HUMIDITY [-] -->
     <g transform="translate(17.930853 455.298503) rotate(-90) scale(0.105 -0.105)">
      <defs>
       <path id="DejaVuSerif-48" d="M 353 0 
L 353 331 
L 947 331 
L 947 4331 
L 353 4331 
L 353 4666 
L 2175 4666 
L 2175 4331 
L 1581 4331 
L 1581 2719 
L 4000 2719 
L 4000 4331 
L 3406 4331 
L 3406 4666 
L 5228 4666 
L 5228 4331 
L 4634 4331 
L 4634 331 
L 5228 331 
L 5228 0 
L 3406 0 
L 3406 331 
L 4000 331 
L 4000 2338 
L 1581 2338 
L 1581 331 
L 2175 331 
L 2175 0 
L 353 0 
z
" transform="scale(0.015625)"/>
       <path id="DejaVuSerif-55" d="M 897 4331 
L 300 4331 
L 300 4666 
L 2125 4666 
L 2125 4331 
L 1528 4331 
L 1528 1919 
Q 1528 1025 1820 672 
Q 2113 319 2828 319 
Q 3544 319 3836 672 
Q 4128 1025 4128 1919 
L 4128 4331 
L 3531 4331 
L 3531 4666 
L 5106 4666 
L 5106 4331 
L 4513 4331 
L 4513 1856 
Q 4513 791 4103 350 
Q 3694 -91 2713 -91 
Q 1731 -91 1314 353 
Q 897 797 897 1856 
L 897 4331 
z
" transform="scale(0.015625)"/>
       <path id="DejaVuSerif-49" d="M 1581 331 
L 2175 331 
L 2175 0 
L 353 0 
L 353 331 
L 947 331 
L 947 4331 
L 353 4331 
L 353 4666 
L 2175 4666 
L 2175 4331 
L 1581 4331 
L 1581 331 
z
" transform="scale(0.015625)"/>
       <path id="DejaVuSerif-44" d="M 1581 331 
L 2163 331 
Q 3072 331 3558 850 
Q 4044 1369 4044 2338 
Q 4044 3306 3559 3818 
Q 3075 4331 2163 4331 
L 1581 4331 
L 1581 331 
z
M 353 0 
L 353 331 
L 947 331 
L 947 4331 
L 353 4331 
L 353 4666 
L 2209 4666 
Q 3416 4666 4089 4050 
Q 4763 3434 4763 2338 
Q 4763 1238 4088 619 
Q 3413 0 2209 0 
L 353 0 
z
" transform="scale(0.015625)"/>
       <path id="DejaVuSerif-59" d="M 1209 0 
L 1209 331 
L 1806 331 
L 1806 2009 
L 366 4331 
L -72 4331 
L -72 4666 
L 1663 4666 
L 1663 4331 
L 1119 4331 
L 2284 2444 
L 3450 4331 
L 2925 4331 
L 2925 4666 
L 4281 4666 
L 4281 4331 
L 3841 4331 
L 2438 2069 
L 2438 331 
L 3034 331 
L 3034 0 
L 1209 0 
z
" transform="scale(0.015625)"/>
      </defs>
      <use xlink:href="#DejaVuSerif-48"/>
      <use xlink:href="#DejaVuSerif-55" transform="translate(87.207031 0)"/>
      <use xlink:href="#DejaVuSerif-4d" transform="translate(171.484375 0)"/>
      <use xlink:href="#DejaVuSerif-49" transform="translate(273.876953 0)"/>
      <use xlink:href="#DejaVuSerif-44" transform="translate(313.378906 0)"/>
      <use xlink:href="#DejaVuSerif-49" transform="translate(393.554688 0)"/>
      <use xlink:href="#DejaVuSerif-54" transform="translate(433.056641 0)"/>
      <use xlink:href="#DejaVuSerif-59" transform="translate(499.755859 0)"/>
      <use xlink:href="#DejaVuSerif-20" transform="translate(565.771484 0)"/>
      <use xlink:href="#DejaVuSerif-5b" transform="translate(597.558594 0)"/>
      <use xlink:href="#DejaVuSerif-2d" transform="translate(636.572266 0)"/>
      <use xlink:href="#DejaVuSerif-5d" transform="translate(670.361328 0)"/>
     </g>
    </g>
   </g>
   <g id="line2d_49">
    <path d="M 58.123835 411.710104 
L 58.640185 420.497166 
L 59.156534 418.056315 
L 59.672884 416.591805 
L 60.189233 414.639124 
L 61.221932 407.316572 
L 61.738281 411.710104 
L 62.254631 410.001508 
L 62.77098 399.261765 
L 63.28733 394.624149 
L 63.803679 413.906869 
L 64.320029 416.103635 
L 64.836378 426.599292 
L 65.352727 427.575633 
L 65.869077 432.213249 
L 66.385426 415.615465 
L 66.901776 428.551973 
L 67.418125 420.741251 
L 67.934475 432.457334 
L 68.450824 425.867037 
L 68.967173 429.528313 
L 69.483523 425.378867 
L 69.999872 429.772398 
L 70.516222 431.969164 
L 71.032571 441.488481 
L 71.548921 429.772398 
L 72.06527 451.007798 
L 73.097969 437.339035 
L 73.614318 434.898184 
L 74.130668 436.850865 
L 74.647017 436.362695 
L 75.163367 444.417502 
L 75.679716 441.000311 
L 76.196066 440.268056 
L 76.712415 437.09495 
L 77.228764 442.952991 
L 77.745114 436.362695 
L 78.261463 446.126097 
L 78.777813 438.315375 
L 79.294162 440.268056 
L 79.810512 436.60678 
L 80.84321 443.197076 
L 81.35956 443.929332 
L 81.875909 451.251884 
L 82.392259 438.07129 
L 82.908608 449.543288 
L 83.424958 448.566948 
L 83.941307 449.055118 
L 84.974006 437.339035 
L 85.490355 440.268056 
L 86.006705 440.023971 
L 86.523054 440.756226 
L 87.039404 443.929332 
L 87.555753 442.220736 
L 88.072103 441.732566 
L 88.588452 441.000311 
L 89.104801 443.685247 
L 89.621151 449.787373 
L 90.1375 449.055118 
L 90.65385 453.204564 
L 91.170199 452.472309 
L 91.686549 461.991626 
L 92.202898 443.441162 
L 92.719248 453.448649 
L 93.235597 456.86584 
L 93.751946 452.716394 
L 94.268296 451.740054 
L 94.784645 447.346523 
L 95.300995 446.614267 
L 95.817344 450.763713 
L 96.333694 451.740054 
L 96.850043 455.8895 
L 97.366392 446.126097 
L 97.882742 451.495969 
L 98.399091 450.275543 
L 98.915441 447.102437 
L 99.43179 447.590608 
L 99.94814 449.055118 
L 100.464489 450.031458 
L 100.980838 452.472309 
L 102.529887 445.882012 
L 103.046236 452.716394 
L 103.562586 448.566948 
L 104.078935 458.81852 
L 104.595285 454.424989 
L 105.111634 447.102437 
L 105.627983 444.905672 
L 106.144333 454.669074 
L 106.660682 444.661587 
L 107.177032 446.126097 
L 107.693381 451.740054 
L 108.209731 449.299203 
L 108.72608 451.740054 
L 109.242429 450.031458 
L 109.758779 459.062605 
L 110.275128 453.692734 
L 110.791478 450.031458 
L 111.307827 447.346523 
L 111.824177 450.275543 
L 112.340526 448.811033 
L 112.856876 448.566948 
L 113.373225 446.614267 
L 113.889574 442.952991 
L 114.405924 446.126097 
L 114.922273 441.732566 
L 115.438623 445.882012 
L 115.954972 446.614267 
L 116.471322 442.708906 
L 116.987671 441.244396 
L 118.02037 452.960479 
L 118.536719 441.732566 
L 119.053069 440.268056 
L 119.569418 443.197076 
L 120.085768 439.779886 
L 120.602117 440.268056 
L 121.118467 442.220736 
L 121.634816 438.07129 
L 122.667515 441.244396 
L 123.183864 447.834693 
L 123.700214 442.708906 
L 124.216563 439.779886 
L 124.732913 443.197076 
L 125.765611 438.55946 
L 126.281961 437.58312 
L 126.79831 435.386355 
L 127.31466 438.803545 
L 127.831009 434.654099 
L 128.347359 436.850865 
L 128.863708 435.386355 
L 129.380057 436.850865 
L 129.896407 433.677759 
L 130.929106 434.654099 
L 131.445455 431.969164 
L 131.961805 431.725079 
L 132.478154 433.189589 
L 132.994504 432.945504 
L 133.510853 429.284228 
L 134.027202 429.772398 
L 134.543552 430.504653 
L 135.576251 426.843377 
L 136.0926 425.867037 
L 136.60895 425.867037 
L 137.125299 428.307888 
L 137.641648 426.111122 
L 138.157998 428.063803 
L 138.674347 427.819718 
L 139.190697 423.182101 
L 140.223396 426.111122 
L 140.739745 421.961676 
L 141.256095 420.741251 
L 141.772444 422.449846 
L 142.288793 423.182101 
L 142.805143 422.693931 
L 143.321492 419.520826 
L 143.837842 420.008996 
L 144.354191 422.205761 
L 144.870541 422.938016 
L 145.38689 419.27674 
L 145.903239 419.764911 
L 146.419589 419.032655 
L 146.935938 420.741251 
L 147.452288 420.741251 
L 147.968637 417.568145 
L 148.484987 418.056315 
L 149.001336 418.78857 
L 150.034035 414.639124 
L 150.550384 414.395039 
L 151.066734 415.615465 
L 151.583083 414.639124 
L 152.099433 415.127294 
L 152.615782 416.83589 
L 153.132132 415.371379 
L 154.16483 414.395039 
L 154.68118 413.174614 
L 155.197529 410.001508 
L 155.713879 413.174614 
L 156.230228 412.930529 
L 156.746578 411.466018 
L 157.262927 411.221933 
L 157.779276 409.269253 
L 158.295626 409.513338 
L 158.811975 409.513338 
L 159.328325 410.001508 
L 159.844674 409.269253 
L 160.361024 409.513338 
L 160.877373 409.025168 
L 161.393723 406.584317 
L 161.910072 405.852062 
L 162.426421 405.852062 
L 162.942771 404.875722 
L 163.45912 403.655297 
L 163.97547 404.143467 
L 164.491819 403.899382 
L 165.008169 401.702616 
L 165.524518 403.655297 
L 166.040867 402.434871 
L 166.557217 403.411211 
L 167.073566 403.411211 
L 167.589916 404.387552 
L 168.106265 401.946701 
L 168.622615 402.678956 
L 169.138964 404.143467 
L 169.655313 402.434871 
L 170.171663 401.458531 
L 170.688012 401.702616 
L 171.204362 402.678956 
L 171.720711 403.411211 
L 172.237061 400.970361 
L 172.75341 401.946701 
L 173.26976 400.482191 
L 174.302458 402.434871 
L 174.818808 400.970361 
L 175.335157 400.238106 
L 176.367856 399.749936 
L 176.884206 399.01768 
L 177.400555 398.52951 
L 177.916904 397.55317 
L 178.433254 398.52951 
L 178.949603 397.309085 
L 179.465953 398.04134 
L 179.982302 396.820915 
L 180.498652 396.57683 
L 181.015001 397.309085 
L 181.531351 397.55317 
L 182.0477 396.332745 
L 182.564049 395.844575 
L 184.113098 392.427384 
L 184.629447 393.159639 
L 185.145797 392.183299 
L 185.662146 393.159639 
L 186.178495 390.474703 
L 186.694845 391.695129 
L 187.211194 392.183299 
L 187.727544 389.986533 
L 188.243893 390.474703 
L 188.760243 389.498363 
L 189.276592 388.033853 
L 189.792941 388.033853 
L 190.309291 389.742448 
L 190.82564 386.569342 
L 191.34199 387.789768 
L 191.858339 384.860747 
L 192.374689 385.348917 
L 192.891038 387.789768 
L 193.407388 386.325257 
L 193.923737 385.593002 
L 194.440086 385.348917 
L 194.956436 383.640321 
L 195.472785 383.152151 
L 195.989135 379.979046 
L 196.505484 381.687641 
L 197.021834 381.443556 
L 197.538183 381.443556 
L 198.054532 382.663981 
L 198.570882 381.931726 
L 199.087231 379.979046 
L 199.603581 380.467216 
L 200.63628 378.026365 
L 201.152629 378.026365 
L 201.668979 376.80594 
L 202.185328 377.050025 
L 202.701677 376.561855 
L 203.218027 375.097344 
L 203.734376 372.656494 
L 204.250726 373.388749 
L 204.767075 370.459728 
L 205.283425 370.459728 
L 205.799774 369.727473 
L 206.316123 369.727473 
L 206.832473 369.971558 
L 207.348822 372.168324 
L 207.865172 369.727473 
L 208.381521 370.459728 
L 208.897871 368.507048 
L 209.41422 369.483388 
L 209.930569 368.507048 
L 210.446919 367.774792 
L 211.479618 365.578027 
L 211.995967 365.822112 
L 212.512317 364.845772 
L 213.028666 364.357602 
L 213.545016 361.672666 
L 214.061365 362.404921 
L 214.577714 363.381261 
L 215.094064 361.916751 
L 215.610413 362.649006 
L 216.126763 361.428581 
L 216.643112 358.49956 
L 217.159462 358.255475 
L 217.675811 358.49956 
L 218.19216 357.279135 
L 218.70851 357.279135 
L 219.224859 356.05871 
L 219.741209 355.326454 
L 220.257558 356.05871 
L 220.773908 355.570539 
L 221.290257 352.153349 
L 221.806607 352.641519 
L 222.322956 348.736158 
L 222.839305 348.492073 
L 223.355655 347.759817 
L 223.872004 346.783477 
L 224.388354 345.074882 
L 224.904703 344.830797 
L 225.421053 342.878116 
L 225.937402 343.854456 
L 226.453751 340.681351 
L 226.970101 343.366286 
L 227.48645 339.949095 
L 228.0028 338.972755 
L 228.519149 339.949095 
L 229.035499 336.531905 
L 229.551848 335.555564 
L 230.068197 337.26416 
L 230.584547 337.996415 
L 231.100896 338.484585 
L 231.617246 337.508245 
L 232.649945 337.996415 
L 233.166294 337.996415 
L 233.682644 336.28782 
L 234.198993 336.28782 
L 234.715342 335.555564 
L 235.231692 334.091054 
L 235.748041 334.091054 
L 236.264391 332.138374 
L 236.78074 331.650203 
L 237.29709 333.114714 
L 237.813439 330.185693 
L 238.329788 330.917948 
L 238.846138 330.673863 
L 239.362487 332.382459 
L 239.878837 330.917948 
L 240.395186 328.965268 
L 240.911536 331.406118 
L 241.944235 328.721183 
L 242.460584 328.233013 
L 242.976933 327.500757 
L 243.493283 326.524417 
L 244.009632 328.477098 
L 244.525982 327.988927 
L 245.042331 328.721183 
L 245.558681 328.965268 
L 246.07503 327.988927 
L 246.591379 327.744842 
L 247.107729 332.382459 
L 247.624078 331.650203 
L 248.140428 333.358799 
L 248.656777 330.185693 
L 249.173127 330.429778 
L 249.689476 329.453438 
L 250.205825 326.280332 
L 250.722175 326.524417 
L 251.238524 327.256672 
L 251.754874 326.280332 
L 252.271223 327.012587 
L 252.787573 325.548077 
L 253.303922 326.036247 
L 253.820272 326.768502 
L 254.336621 324.571737 
L 254.85297 324.327652 
L 255.36932 323.595396 
L 255.885669 324.327652 
L 256.402019 324.815822 
L 256.918368 325.548077 
L 257.434718 325.303992 
L 257.951067 323.107226 
L 258.467416 324.083566 
L 258.983766 321.398631 
L 259.500115 320.422291 
L 260.016465 320.910461 
L 260.532814 318.225525 
L 261.049164 318.95778 
L 261.565513 318.46961 
L 262.081863 317.737355 
L 262.598212 318.713695 
L 263.114561 316.51693 
L 263.630911 316.761015 
L 264.14726 316.51693 
L 264.66361 315.540589 
L 265.696309 316.028759 
L 266.212658 316.761015 
L 266.729007 313.587909 
L 267.245357 314.564249 
L 267.761706 314.320164 
L 268.278056 312.367484 
L 268.794405 311.635228 
L 269.310755 311.147058 
L 269.827104 312.855654 
L 270.343453 311.879313 
L 270.859803 309.682548 
L 271.376152 309.438463 
L 272.408851 307.973952 
L 272.925201 308.218037 
L 273.44155 307.485782 
L 273.9579 308.706208 
L 274.474249 307.485782 
L 274.990598 305.777187 
L 275.506948 306.265357 
L 276.023297 304.312676 
L 276.539647 305.533102 
L 277.055996 306.021272 
L 277.572346 302.848166 
L 278.088695 306.753527 
L 278.605044 305.289017 
L 279.121394 308.706208 
L 279.637743 306.509442 
L 280.154093 308.706208 
L 280.670442 307.485782 
L 281.186792 309.194378 
L 281.703141 307.973952 
L 282.219491 308.706208 
L 282.73584 308.462123 
L 283.252189 307.241697 
L 283.768539 308.706208 
L 284.284888 309.682548 
L 284.801238 308.950293 
L 285.833937 309.438463 
L 286.866635 310.902973 
L 287.382985 310.170718 
L 287.899334 312.123398 
L 288.415684 313.099739 
L 289.448383 315.784674 
L 289.964732 318.46961 
L 290.481082 316.028759 
L 290.997431 316.028759 
L 291.51378 317.0051 
L 292.546479 317.49327 
L 293.579178 319.690035 
L 294.611877 319.690035 
L 295.128226 322.863141 
L 295.644576 323.107226 
L 296.160925 324.327652 
L 296.677275 326.036247 
L 297.193624 325.792162 
L 297.709974 328.477098 
L 298.226323 328.477098 
L 298.742672 330.673863 
L 299.259022 331.406118 
L 299.775371 332.382459 
L 300.291721 335.311479 
L 300.80807 335.555564 
L 301.32442 337.020075 
L 301.840769 339.949095 
L 302.357119 340.437266 
L 302.873468 344.830797 
L 303.389817 347.027562 
L 303.906167 347.027562 
L 304.422516 351.177008 
L 304.938866 351.909263 
L 305.455215 353.129689 
L 305.971565 352.885604 
L 306.487914 353.861944 
L 307.004263 355.814624 
L 307.520613 354.838284 
L 308.036962 355.814624 
L 308.553312 357.279135 
L 309.069661 357.279135 
L 309.586011 362.649006 
L 310.10236 364.845772 
L 310.61871 368.751133 
L 311.135059 379.490875 
L 312.167758 397.065 
L 313.200457 418.544485 
L 313.716806 424.402527 
L 314.233156 433.921844 
L 314.749505 445.882012 
L 315.265854 452.960479 
L 317.331252 488.596898 
L 317.847602 492.014089 
L 318.363951 502.753831 
L 318.8803 505.682852 
L 319.39665 512.761319 
L 319.912999 514.958085 
L 320.429349 516.17851 
L 320.945698 520.816126 
L 321.462048 523.256977 
L 321.978397 523.501062 
L 322.494747 517.887105 
L 323.527445 502.997917 
L 324.560144 485.179707 
L 325.592843 471.266859 
L 326.109193 465.652902 
L 326.625542 463.944307 
L 327.141891 460.527116 
L 327.658241 459.062605 
L 328.17459 455.40133 
L 329.207289 458.574435 
L 329.723639 457.598095 
L 330.239988 457.598095 
L 330.756338 454.424989 
L 331.272687 454.180904 
L 331.789036 454.180904 
L 332.305386 453.448649 
L 332.821735 453.692734 
L 333.338085 452.960479 
L 333.854434 452.716394 
L 334.370784 455.40133 
L 335.403482 450.519628 
L 335.919832 450.275543 
L 336.436181 448.811033 
L 336.952531 449.055118 
L 337.46888 444.905672 
L 338.501579 445.882012 
L 339.017928 441.000311 
L 339.534278 441.244396 
L 340.050627 439.535801 
L 340.566977 438.803545 
L 341.083326 434.654099 
L 341.599676 435.874525 
L 342.116025 436.362695 
L 342.632375 436.60678 
L 343.148724 437.339035 
L 343.665073 440.512141 
L 344.697772 475.66039 
L 346.246821 497.628045 
L 346.76317 520.572041 
L 347.279519 533.264464 
L 347.795869 509.344128 
L 348.312218 497.38396 
L 348.828568 478.345325 
L 349.344917 475.416305 
L 349.861267 478.345325 
L 350.377616 488.352813 
L 350.893966 448.566948 
L 351.410315 469.070093 
L 351.926664 414.883209 
L 352.443014 451.984139 
L 352.959363 445.882012 
L 401.238036 347.271647 
L 405.110656 340.681351 
L 408.983277 337.020075 
L 412.855898 320.666376 
L 412.855898 320.666376 
" clip-path="url(#pccb26f88e0)" style="fill: none; stroke: #0000ff; stroke-width: 0.5; stroke-linecap: square"/>
   </g>
   <g id="line2d_50">
    <path d="M 64.320029 416.103635 
L 79.810512 436.60678 
L 95.300995 446.614267 
L 110.791478 450.031458 
L 126.281961 437.58312 
L 141.772444 422.449846 
L 157.262927 411.221933 
L 172.75341 401.946701 
L 188.243893 390.474703 
L 203.734376 372.656494 
L 219.224859 356.05871 
L 234.715342 335.555564 
L 250.205825 326.280332 
L 265.696309 316.028759 
L 281.186792 309.194378 
L 296.677275 326.036247 
L 312.167758 397.065 
L 327.658241 459.062605 
L 343.148724 437.339035 
M 405.110656 340.681351 
" clip-path="url(#pccb26f88e0)" style="fill: none; stroke: #ff0000; stroke-width: 1.5; stroke-linecap: square"/>
   </g>
   <g id="patch_13">
    <path d="M 40.387232 544.785279 
L 40.387232 291.327351 
" style="fill: none; stroke: #000000; stroke-width: 0.8; stroke-linejoin: miter; stroke-linecap: square"/>
   </g>
   <g id="patch_14">
    <path d="M 430.592501 544.785279 
L 430.592501 291.327351 
" style="fill: none; stroke: #000000; stroke-width: 0.8; stroke-linejoin: miter; stroke-linecap: square"/>
   </g>
   <g id="patch_15">
    <path d="M 40.387232 544.785279 
L 430.592501 544.785279 
" style="fill: none; stroke: #000000; stroke-width: 0.8; stroke-linejoin: miter; stroke-linecap: square"/>
   </g>
   <g id="patch_16">
    <path d="M 40.387232 291.327351 
L 430.592501 291.327351 
" style="fill: none; stroke: #000000; stroke-width: 0.8; stroke-linejoin: miter; stroke-linecap: square"/>
   </g>
  </g>
 </g>
 <defs>
  <clipPath id="p3f61b2b6be">
   <rect x="40.387232" y="3.654462" width="390.205269" height="253.457928"/>
  </clipPath>
  <clipPath id="p0bfc9dff3d">
   <rect x="470.230865" y="3.654462" width="390.205269" height="253.457928"/>
  </clipPath>
  <clipPath id="pccb26f88e0">
   <rect x="40.387232" y="291.327351" width="390.205269" height="253.457928"/>
  </clipPath>
 </defs>
</svg>
